<mxfile host="app.diagrams.net" modified="2024-04-16T01:08:18.913Z" agent="Mozilla/5.0 (Windows NT 10.0; Win64; x64) AppleWebKit/537.36 (KHTML, like Gecko) Chrome/123.0.0.0 Safari/537.36" etag="RwVg2A13ANzw6LOdC4HZ" version="24.2.5" type="device" pages="6">
  <diagram id="BVv878iDlQ-abEJdKzJY" name="페이지-1">
    <mxGraphModel dx="1236" dy="1628" grid="0" gridSize="10" guides="1" tooltips="1" connect="1" arrows="1" fold="1" page="0" pageScale="1" pageWidth="827" pageHeight="1169" math="0" shadow="0">
      <root>
        <mxCell id="0" />
        <mxCell id="1" parent="0" />
        <mxCell id="zY-GcqUqhV92ewJozwea-1" value="&lt;span style=&quot;color: rgb(29, 28, 29); font-family: Monaco, Menlo, Consolas, &amp;quot;Courier New&amp;quot;, monospace; font-size: 12px; font-style: normal; font-variant-ligatures: none; font-variant-caps: normal; font-weight: 400; letter-spacing: normal; orphans: 2; text-align: left; text-indent: 0px; text-transform: none; widows: 2; word-spacing: 0px; -webkit-text-stroke-width: 0px; white-space: pre-wrap; background-color: rgba(29, 28, 29, 0.04); text-decoration-thickness: initial; text-decoration-style: initial; text-decoration-color: initial; display: inline !important; float: none;&quot;&gt;다음은 부동산 정보를 저장하는 데이터베이스이다.&#xa;아래와 같은 하나의 릴레이션에 정보가 저장되어있고,&#xa;&#xa;```&#xa;부동산(필지번호, 주소, 공시지가, 소유자이름, 주민등록번호, 전화번호)&#xa;```&#xa;다음과 같은 함수 종속성을 가진다. &#xa;&#xa;```&#xa;함수 종속성&#xa;&lt;span style=&quot;white-space: pre;&quot;&gt;&amp;nbsp;&amp;nbsp;&amp;nbsp;&amp;nbsp;&lt;/span&gt;- 필지번호 -&amp;gt; 주소, 공시지가 : 땅에 대한 고유 번호이며 필지에 대하여 주소와 공시가격이 주어진다.&#xa;&lt;span style=&quot;white-space: pre;&quot;&gt;&amp;nbsp;&amp;nbsp;&amp;nbsp;&amp;nbsp;&lt;/span&gt;- 소유자이름 -&amp;gt; 전화번호 : 소유자는 하나의 전화번호를 갖는다&#xa;&lt;span style=&quot;white-space: pre;&quot;&gt;&amp;nbsp;&amp;nbsp;&amp;nbsp;&amp;nbsp;&lt;/span&gt;- 주민등록번호 -&amp;gt; 소유자이름 : 사람마다 고유한 주민등록번호가 있다.&#xa;```&#xa;&#xa;1. 함수 종속성 다이어그램을 그리시오.&#xa;2. 테이블을 분해하시오.&lt;/span&gt;" style="text;whiteSpace=wrap;html=1;" parent="1" vertex="1">
          <mxGeometry x="-185" y="-799" width="550" height="281" as="geometry" />
        </mxCell>
        <mxCell id="zY-GcqUqhV92ewJozwea-12" style="edgeStyle=none;curved=1;rounded=0;orthogonalLoop=1;jettySize=auto;html=1;exitX=1;exitY=0.5;exitDx=0;exitDy=0;entryX=0;entryY=0.5;entryDx=0;entryDy=0;fontSize=12;startSize=8;endSize=8;" parent="1" source="zY-GcqUqhV92ewJozwea-2" target="zY-GcqUqhV92ewJozwea-5" edge="1">
          <mxGeometry relative="1" as="geometry" />
        </mxCell>
        <mxCell id="zY-GcqUqhV92ewJozwea-13" style="edgeStyle=none;curved=1;rounded=0;orthogonalLoop=1;jettySize=auto;html=1;exitX=1;exitY=0.5;exitDx=0;exitDy=0;entryX=0;entryY=0.5;entryDx=0;entryDy=0;fontSize=12;startSize=8;endSize=8;" parent="1" source="zY-GcqUqhV92ewJozwea-2" target="zY-GcqUqhV92ewJozwea-6" edge="1">
          <mxGeometry relative="1" as="geometry" />
        </mxCell>
        <mxCell id="zY-GcqUqhV92ewJozwea-2" value="필지번호" style="rounded=0;whiteSpace=wrap;html=1;" parent="1" vertex="1">
          <mxGeometry x="-167" y="-451" width="90" height="41" as="geometry" />
        </mxCell>
        <mxCell id="zY-GcqUqhV92ewJozwea-5" value="주소" style="rounded=0;whiteSpace=wrap;html=1;" parent="1" vertex="1">
          <mxGeometry x="-1" y="-451" width="90" height="41" as="geometry" />
        </mxCell>
        <mxCell id="zY-GcqUqhV92ewJozwea-6" value="공시지가" style="rounded=0;whiteSpace=wrap;html=1;" parent="1" vertex="1">
          <mxGeometry x="-1" y="-400" width="90" height="41" as="geometry" />
        </mxCell>
        <mxCell id="zY-GcqUqhV92ewJozwea-8" value="전화번호" style="rounded=0;whiteSpace=wrap;html=1;" parent="1" vertex="1">
          <mxGeometry x="165" y="-342" width="90" height="41" as="geometry" />
        </mxCell>
        <mxCell id="zY-GcqUqhV92ewJozwea-15" style="edgeStyle=none;curved=1;rounded=0;orthogonalLoop=1;jettySize=auto;html=1;exitX=1;exitY=0.5;exitDx=0;exitDy=0;entryX=0;entryY=0.5;entryDx=0;entryDy=0;fontSize=12;startSize=8;endSize=8;" parent="1" source="zY-GcqUqhV92ewJozwea-9" target="zY-GcqUqhV92ewJozwea-10" edge="1">
          <mxGeometry relative="1" as="geometry" />
        </mxCell>
        <mxCell id="zY-GcqUqhV92ewJozwea-9" value="주민등록번호" style="rounded=0;whiteSpace=wrap;html=1;" parent="1" vertex="1">
          <mxGeometry x="-167" y="-342" width="90" height="41" as="geometry" />
        </mxCell>
        <mxCell id="zY-GcqUqhV92ewJozwea-29" style="edgeStyle=none;curved=1;rounded=0;orthogonalLoop=1;jettySize=auto;html=1;exitX=1;exitY=0.5;exitDx=0;exitDy=0;entryX=0;entryY=0.5;entryDx=0;entryDy=0;fontSize=12;startSize=8;endSize=8;endArrow=classic;endFill=1;strokeColor=default;startArrow=classic;startFill=1;" parent="1" source="zY-GcqUqhV92ewJozwea-10" target="zY-GcqUqhV92ewJozwea-8" edge="1">
          <mxGeometry relative="1" as="geometry" />
        </mxCell>
        <mxCell id="zY-GcqUqhV92ewJozwea-10" value="소유자 이름" style="rounded=0;whiteSpace=wrap;html=1;" parent="1" vertex="1">
          <mxGeometry x="-1" y="-342" width="90" height="41" as="geometry" />
        </mxCell>
        <mxCell id="zY-GcqUqhV92ewJozwea-17" style="edgeStyle=none;curved=1;rounded=0;orthogonalLoop=1;jettySize=auto;html=1;exitX=1;exitY=0.5;exitDx=0;exitDy=0;entryX=0;entryY=0.5;entryDx=0;entryDy=0;fontSize=12;startSize=8;endSize=8;" parent="1" source="zY-GcqUqhV92ewJozwea-19" target="zY-GcqUqhV92ewJozwea-20" edge="1">
          <mxGeometry relative="1" as="geometry" />
        </mxCell>
        <mxCell id="zY-GcqUqhV92ewJozwea-19" value="필지번호" style="rounded=0;whiteSpace=wrap;html=1;" parent="1" vertex="1">
          <mxGeometry x="-167" y="-240" width="90" height="41" as="geometry" />
        </mxCell>
        <mxCell id="zY-GcqUqhV92ewJozwea-20" value="주소" style="rounded=0;whiteSpace=wrap;html=1;" parent="1" vertex="1">
          <mxGeometry x="-1" y="-240" width="90" height="41" as="geometry" />
        </mxCell>
        <mxCell id="zY-GcqUqhV92ewJozwea-21" value="공시지가" style="rounded=0;whiteSpace=wrap;html=1;" parent="1" vertex="1">
          <mxGeometry x="-1" y="-189" width="90" height="41" as="geometry" />
        </mxCell>
        <mxCell id="zY-GcqUqhV92ewJozwea-22" style="edgeStyle=none;curved=1;rounded=0;orthogonalLoop=1;jettySize=auto;html=1;exitX=1;exitY=0.5;exitDx=0;exitDy=0;entryX=0;entryY=0.5;entryDx=0;entryDy=0;fontSize=12;startSize=8;endSize=8;startArrow=classic;startFill=1;" parent="1" source="zY-GcqUqhV92ewJozwea-27" target="zY-GcqUqhV92ewJozwea-24" edge="1">
          <mxGeometry relative="1" as="geometry">
            <mxPoint x="206" y="-51.5" as="sourcePoint" />
          </mxGeometry>
        </mxCell>
        <mxCell id="zY-GcqUqhV92ewJozwea-24" value="전화번호" style="rounded=0;whiteSpace=wrap;html=1;" parent="1" vertex="1">
          <mxGeometry x="150" y="-72" width="90" height="41" as="geometry" />
        </mxCell>
        <mxCell id="zY-GcqUqhV92ewJozwea-25" style="edgeStyle=none;curved=1;rounded=0;orthogonalLoop=1;jettySize=auto;html=1;exitX=1;exitY=0.5;exitDx=0;exitDy=0;entryX=0;entryY=0.5;entryDx=0;entryDy=0;fontSize=12;startSize=8;endSize=8;" parent="1" source="zY-GcqUqhV92ewJozwea-26" target="zY-GcqUqhV92ewJozwea-27" edge="1">
          <mxGeometry relative="1" as="geometry" />
        </mxCell>
        <mxCell id="zY-GcqUqhV92ewJozwea-26" value="주민등록번호" style="rounded=0;whiteSpace=wrap;html=1;" parent="1" vertex="1">
          <mxGeometry x="-167" y="-72" width="90" height="41" as="geometry" />
        </mxCell>
        <mxCell id="zY-GcqUqhV92ewJozwea-27" value="소유자 이름" style="rounded=0;whiteSpace=wrap;html=1;" parent="1" vertex="1">
          <mxGeometry x="-1" y="-72" width="90" height="41" as="geometry" />
        </mxCell>
        <mxCell id="LJAQutI7eYVkqaMMsQ2f-1" value="&lt;b&gt;소유자&lt;/b&gt; (&lt;u&gt;주민등록번호(PK)&lt;/u&gt;, 소유자 이름, 전화번호)&lt;div&gt;&lt;b&gt;부동산&lt;/b&gt; (&lt;u&gt;필지번호(PK)&lt;/u&gt;, 주소, 공시지가, 주민등록번호(FK))&lt;/div&gt;" style="text;html=1;align=left;verticalAlign=middle;resizable=0;points=[];autosize=1;strokeColor=none;fillColor=none;fontSize=17;" vertex="1" parent="1">
          <mxGeometry x="126" y="-412" width="460" height="50" as="geometry" />
        </mxCell>
        <mxCell id="t13hj8jTAs4qpEMpYGhH-1" value="필지가 공동소유인 경우" style="text;html=1;align=center;verticalAlign=middle;resizable=0;points=[];autosize=1;strokeColor=none;fillColor=none;fontStyle=1;fontSize=17;" vertex="1" parent="1">
          <mxGeometry x="139" y="-240" width="200" height="30" as="geometry" />
        </mxCell>
        <mxCell id="t13hj8jTAs4qpEMpYGhH-13" value="&lt;div&gt;&lt;b&gt;부동산&lt;/b&gt;&amp;nbsp;(&lt;u&gt;필지번호(PK)&lt;/u&gt;, 주소, 공시지가)&lt;b&gt;&lt;br&gt;&lt;/b&gt;&lt;/div&gt;&lt;div&gt;&lt;b&gt;부동산소유자&amp;nbsp;&lt;/b&gt;(&lt;u&gt;필지번호(PK)&lt;/u&gt;, 주민등록번호)&lt;/div&gt;&lt;b&gt;소유자&lt;/b&gt; (&lt;u&gt;주민등록번호(PK)&lt;/u&gt;, 소유자 이름, 전화번호)" style="text;html=1;align=left;verticalAlign=middle;resizable=0;points=[];autosize=1;strokeColor=none;fillColor=none;fontSize=17;" vertex="1" parent="1">
          <mxGeometry x="146" y="-203.5" width="400" height="70" as="geometry" />
        </mxCell>
        <mxCell id="t13hj8jTAs4qpEMpYGhH-14" value="" style="rounded=0;whiteSpace=wrap;html=1;fillColor=none;" vertex="1" parent="1">
          <mxGeometry x="-172" y="-244" width="101" height="220" as="geometry" />
        </mxCell>
      </root>
    </mxGraphModel>
  </diagram>
  <diagram id="aVSKa6VUR8al_RuNgSV2" name="학생수강성적">
    <mxGraphModel dx="1030" dy="1228" grid="0" gridSize="10" guides="1" tooltips="1" connect="1" arrows="1" fold="1" page="0" pageScale="1" pageWidth="827" pageHeight="1169" math="0" shadow="0">
      <root>
        <mxCell id="0" />
        <mxCell id="1" parent="0" />
        <mxCell id="Js7-bg6RBJJ9hFsX2lcb-15" style="edgeStyle=none;curved=1;rounded=0;orthogonalLoop=1;jettySize=auto;html=1;exitX=0.5;exitY=1;exitDx=0;exitDy=0;entryX=0.5;entryY=0;entryDx=0;entryDy=0;fontSize=12;startSize=8;endSize=8;" edge="1" parent="1" source="Js7-bg6RBJJ9hFsX2lcb-9" target="Js7-bg6RBJJ9hFsX2lcb-10">
          <mxGeometry relative="1" as="geometry" />
        </mxCell>
        <mxCell id="Js7-bg6RBJJ9hFsX2lcb-9" value="" style="rounded=0;whiteSpace=wrap;html=1;textOpacity=0;labelBackgroundColor=none;fillColor=none;" vertex="1" parent="1">
          <mxGeometry x="118" y="-196" width="104" height="178" as="geometry" />
        </mxCell>
        <mxCell id="K6VWF541zykoXN52OyZW-2" value="&lt;font style=&quot;font-size: 14px;&quot;&gt;함수종속성 다이어그램&lt;/font&gt;" style="text;strokeColor=none;fillColor=none;html=1;align=left;verticalAlign=middle;whiteSpace=wrap;rounded=0;fontSize=16;fontStyle=1" vertex="1" parent="1">
          <mxGeometry x="-154" y="-192" width="157" height="23" as="geometry" />
        </mxCell>
        <mxCell id="K6VWF541zykoXN52OyZW-3" value="&lt;font style=&quot;font-size: 14px; font-weight: normal;&quot;&gt;학생번호 → 학생이름&lt;/font&gt;&lt;div&gt;&lt;font style=&quot;font-size: 14px; font-weight: normal;&quot;&gt;학생번호&amp;nbsp;&lt;/font&gt;&lt;span style=&quot;font-size: 14px; font-weight: 400; background-color: initial;&quot;&gt;→ 학과&lt;/span&gt;&lt;/div&gt;&lt;div&gt;&lt;span style=&quot;font-size: 14px; font-weight: 400; background-color: initial;&quot;&gt;학생번호&amp;nbsp;&lt;/span&gt;&lt;span style=&quot;font-size: 14px; font-weight: 400; background-color: initial;&quot;&gt;→ 주소&lt;/span&gt;&lt;/div&gt;&lt;div&gt;&lt;span style=&quot;font-size: 14px; font-weight: 400; background-color: initial;&quot;&gt;학과&amp;nbsp;&lt;/span&gt;&lt;span style=&quot;font-size: 14px; font-weight: 400; background-color: initial;&quot;&gt;→ 학과사무실&lt;/span&gt;&lt;/div&gt;&lt;div&gt;&lt;span style=&quot;font-size: 14px; font-weight: 400; background-color: initial;&quot;&gt;강좌이름&amp;nbsp;&lt;/span&gt;&lt;span style=&quot;font-size: 14px; font-weight: 400; background-color: initial;&quot;&gt;→ 강의실&lt;/span&gt;&lt;/div&gt;&lt;div&gt;&lt;span style=&quot;font-size: 14px; font-weight: 400; background-color: initial;&quot;&gt;(학생번호, 강좌이름)&amp;nbsp;&lt;/span&gt;&lt;span style=&quot;font-size: 14px; font-weight: 400; background-color: initial;&quot;&gt;→ 성적&lt;/span&gt;&lt;/div&gt;" style="text;strokeColor=none;fillColor=none;html=1;align=left;verticalAlign=middle;whiteSpace=wrap;rounded=0;fontSize=16;fontStyle=1" vertex="1" parent="1">
          <mxGeometry x="-154" y="-107" width="211" height="23" as="geometry" />
        </mxCell>
        <mxCell id="Js7-bg6RBJJ9hFsX2lcb-4" style="edgeStyle=none;curved=1;rounded=0;orthogonalLoop=1;jettySize=auto;html=1;exitX=1;exitY=0.5;exitDx=0;exitDy=0;fontSize=12;startSize=8;endSize=8;" edge="1" parent="1" source="Js7-bg6RBJJ9hFsX2lcb-1" target="Js7-bg6RBJJ9hFsX2lcb-2">
          <mxGeometry relative="1" as="geometry">
            <mxPoint x="294" y="-163" as="targetPoint" />
          </mxGeometry>
        </mxCell>
        <mxCell id="Js7-bg6RBJJ9hFsX2lcb-5" style="edgeStyle=none;curved=1;rounded=0;orthogonalLoop=1;jettySize=auto;html=1;exitX=1;exitY=0.5;exitDx=0;exitDy=0;entryX=0;entryY=0.5;entryDx=0;entryDy=0;fontSize=12;startSize=8;endSize=8;" edge="1" parent="1" source="Js7-bg6RBJJ9hFsX2lcb-1" target="Js7-bg6RBJJ9hFsX2lcb-3">
          <mxGeometry relative="1" as="geometry" />
        </mxCell>
        <mxCell id="Js7-bg6RBJJ9hFsX2lcb-12" style="edgeStyle=none;curved=1;rounded=0;orthogonalLoop=1;jettySize=auto;html=1;exitX=0.5;exitY=0;exitDx=0;exitDy=0;entryX=0.5;entryY=1;entryDx=0;entryDy=0;fontSize=12;startSize=8;endSize=8;" edge="1" parent="1" source="Js7-bg6RBJJ9hFsX2lcb-1" target="Js7-bg6RBJJ9hFsX2lcb-11">
          <mxGeometry relative="1" as="geometry" />
        </mxCell>
        <mxCell id="Js7-bg6RBJJ9hFsX2lcb-1" value="학생번호" style="rounded=0;whiteSpace=wrap;html=1;" vertex="1" parent="1">
          <mxGeometry x="125" y="-184" width="90" height="41" as="geometry" />
        </mxCell>
        <mxCell id="Js7-bg6RBJJ9hFsX2lcb-13" style="edgeStyle=none;curved=1;rounded=0;orthogonalLoop=1;jettySize=auto;html=1;exitX=1;exitY=0.5;exitDx=0;exitDy=0;fontSize=12;startSize=8;endSize=8;" edge="1" parent="1" source="Js7-bg6RBJJ9hFsX2lcb-2">
          <mxGeometry relative="1" as="geometry">
            <mxPoint x="406" y="-163" as="targetPoint" />
          </mxGeometry>
        </mxCell>
        <mxCell id="Js7-bg6RBJJ9hFsX2lcb-2" value="학과" style="rounded=0;whiteSpace=wrap;html=1;" vertex="1" parent="1">
          <mxGeometry x="295" y="-184" width="90" height="41" as="geometry" />
        </mxCell>
        <mxCell id="Js7-bg6RBJJ9hFsX2lcb-3" value="주소" style="rounded=0;whiteSpace=wrap;html=1;" vertex="1" parent="1">
          <mxGeometry x="295" y="-125" width="90" height="41" as="geometry" />
        </mxCell>
        <mxCell id="Js7-bg6RBJJ9hFsX2lcb-6" value="학과사무실" style="rounded=0;whiteSpace=wrap;html=1;" vertex="1" parent="1">
          <mxGeometry x="407" y="-184" width="90" height="41" as="geometry" />
        </mxCell>
        <mxCell id="Js7-bg6RBJJ9hFsX2lcb-14" style="edgeStyle=none;curved=1;rounded=0;orthogonalLoop=1;jettySize=auto;html=1;exitX=1;exitY=0.5;exitDx=0;exitDy=0;entryX=0;entryY=0.5;entryDx=0;entryDy=0;fontSize=12;startSize=8;endSize=8;" edge="1" parent="1" source="Js7-bg6RBJJ9hFsX2lcb-7" target="Js7-bg6RBJJ9hFsX2lcb-8">
          <mxGeometry relative="1" as="geometry" />
        </mxCell>
        <mxCell id="Js7-bg6RBJJ9hFsX2lcb-7" value="강좌이름" style="rounded=0;whiteSpace=wrap;html=1;" vertex="1" parent="1">
          <mxGeometry x="125" y="-66" width="90" height="41" as="geometry" />
        </mxCell>
        <mxCell id="Js7-bg6RBJJ9hFsX2lcb-8" value="강의실" style="rounded=0;whiteSpace=wrap;html=1;" vertex="1" parent="1">
          <mxGeometry x="295" y="-66" width="90" height="41" as="geometry" />
        </mxCell>
        <mxCell id="Js7-bg6RBJJ9hFsX2lcb-10" value="성적" style="rounded=0;whiteSpace=wrap;html=1;" vertex="1" parent="1">
          <mxGeometry x="125" y="3" width="90" height="41" as="geometry" />
        </mxCell>
        <mxCell id="Js7-bg6RBJJ9hFsX2lcb-11" value="학생이름" style="rounded=0;whiteSpace=wrap;html=1;" vertex="1" parent="1">
          <mxGeometry x="125" y="-254" width="90" height="41" as="geometry" />
        </mxCell>
        <mxCell id="Js7-bg6RBJJ9hFsX2lcb-16" value="&lt;font style=&quot;font-size: 14px;&quot;&gt;학생수강성적&lt;/font&gt;" style="text;strokeColor=none;fillColor=none;html=1;align=left;verticalAlign=middle;whiteSpace=wrap;rounded=0;fontSize=16;fontStyle=1" vertex="1" parent="1">
          <mxGeometry x="114" y="-302" width="157" height="23" as="geometry" />
        </mxCell>
        <mxCell id="Js7-bg6RBJJ9hFsX2lcb-17" value="&lt;font style=&quot;font-size: 14px;&quot;&gt;부분 릴레이션 분해&lt;/font&gt;" style="text;strokeColor=none;fillColor=none;html=1;align=left;verticalAlign=middle;whiteSpace=wrap;rounded=0;fontSize=16;fontStyle=1" vertex="1" parent="1">
          <mxGeometry x="-154" y="91" width="157" height="23" as="geometry" />
        </mxCell>
        <mxCell id="Js7-bg6RBJJ9hFsX2lcb-18" value="&lt;span style=&quot;font-size: 14px; font-weight: 400;&quot;&gt;학생수강성적(학생번호, 학생이름, 학과, 주소, 강좌이름, 학과사무실)&lt;/span&gt;&lt;div&gt;&lt;span style=&quot;font-size: 14px; font-weight: 400;&quot;&gt;강의실(강좌이름, 강의실)&lt;/span&gt;&lt;/div&gt;" style="text;strokeColor=none;fillColor=none;html=1;align=left;verticalAlign=middle;whiteSpace=wrap;rounded=0;fontSize=16;fontStyle=1" vertex="1" parent="1">
          <mxGeometry x="-154" y="135" width="451" height="23" as="geometry" />
        </mxCell>
        <mxCell id="Js7-bg6RBJJ9hFsX2lcb-19" style="edgeStyle=none;curved=1;rounded=0;orthogonalLoop=1;jettySize=auto;html=1;exitX=0.5;exitY=1;exitDx=0;exitDy=0;entryX=0.5;entryY=0;entryDx=0;entryDy=0;fontSize=12;startSize=8;endSize=8;" edge="1" parent="1" source="Js7-bg6RBJJ9hFsX2lcb-20" target="Js7-bg6RBJJ9hFsX2lcb-32">
          <mxGeometry relative="1" as="geometry" />
        </mxCell>
        <mxCell id="Js7-bg6RBJJ9hFsX2lcb-20" value="" style="rounded=0;whiteSpace=wrap;html=1;textOpacity=0;labelBackgroundColor=none;fillColor=none;" vertex="1" parent="1">
          <mxGeometry x="300" y="149" width="104" height="178" as="geometry" />
        </mxCell>
        <mxCell id="Js7-bg6RBJJ9hFsX2lcb-21" style="edgeStyle=none;curved=1;rounded=0;orthogonalLoop=1;jettySize=auto;html=1;exitX=1;exitY=0.5;exitDx=0;exitDy=0;fontSize=12;startSize=8;endSize=8;" edge="1" parent="1" source="Js7-bg6RBJJ9hFsX2lcb-24" target="Js7-bg6RBJJ9hFsX2lcb-26">
          <mxGeometry relative="1" as="geometry">
            <mxPoint x="476" y="182" as="targetPoint" />
          </mxGeometry>
        </mxCell>
        <mxCell id="Js7-bg6RBJJ9hFsX2lcb-22" style="edgeStyle=none;curved=1;rounded=0;orthogonalLoop=1;jettySize=auto;html=1;exitX=1;exitY=0.5;exitDx=0;exitDy=0;entryX=0;entryY=0.5;entryDx=0;entryDy=0;fontSize=12;startSize=8;endSize=8;" edge="1" parent="1" source="Js7-bg6RBJJ9hFsX2lcb-24" target="Js7-bg6RBJJ9hFsX2lcb-27">
          <mxGeometry relative="1" as="geometry" />
        </mxCell>
        <mxCell id="Js7-bg6RBJJ9hFsX2lcb-23" style="edgeStyle=none;curved=1;rounded=0;orthogonalLoop=1;jettySize=auto;html=1;exitX=0.5;exitY=0;exitDx=0;exitDy=0;entryX=0.5;entryY=1;entryDx=0;entryDy=0;fontSize=12;startSize=8;endSize=8;" edge="1" parent="1" source="Js7-bg6RBJJ9hFsX2lcb-24" target="Js7-bg6RBJJ9hFsX2lcb-33">
          <mxGeometry relative="1" as="geometry" />
        </mxCell>
        <mxCell id="Js7-bg6RBJJ9hFsX2lcb-24" value="학생번호" style="rounded=0;whiteSpace=wrap;html=1;" vertex="1" parent="1">
          <mxGeometry x="307" y="161" width="90" height="41" as="geometry" />
        </mxCell>
        <mxCell id="Js7-bg6RBJJ9hFsX2lcb-25" style="edgeStyle=none;curved=1;rounded=0;orthogonalLoop=1;jettySize=auto;html=1;exitX=1;exitY=0.5;exitDx=0;exitDy=0;fontSize=12;startSize=8;endSize=8;" edge="1" parent="1" source="Js7-bg6RBJJ9hFsX2lcb-26">
          <mxGeometry relative="1" as="geometry">
            <mxPoint x="588" y="182" as="targetPoint" />
          </mxGeometry>
        </mxCell>
        <mxCell id="Js7-bg6RBJJ9hFsX2lcb-26" value="학과" style="rounded=0;whiteSpace=wrap;html=1;" vertex="1" parent="1">
          <mxGeometry x="477" y="161" width="90" height="41" as="geometry" />
        </mxCell>
        <mxCell id="Js7-bg6RBJJ9hFsX2lcb-27" value="주소" style="rounded=0;whiteSpace=wrap;html=1;" vertex="1" parent="1">
          <mxGeometry x="477" y="220" width="90" height="41" as="geometry" />
        </mxCell>
        <mxCell id="Js7-bg6RBJJ9hFsX2lcb-28" value="학과사무실" style="rounded=0;whiteSpace=wrap;html=1;" vertex="1" parent="1">
          <mxGeometry x="589" y="161" width="90" height="41" as="geometry" />
        </mxCell>
        <mxCell id="Js7-bg6RBJJ9hFsX2lcb-30" value="강좌이름" style="rounded=0;whiteSpace=wrap;html=1;" vertex="1" parent="1">
          <mxGeometry x="307" y="279" width="90" height="41" as="geometry" />
        </mxCell>
        <mxCell id="Js7-bg6RBJJ9hFsX2lcb-32" value="성적" style="rounded=0;whiteSpace=wrap;html=1;" vertex="1" parent="1">
          <mxGeometry x="307" y="348" width="90" height="41" as="geometry" />
        </mxCell>
        <mxCell id="Js7-bg6RBJJ9hFsX2lcb-33" value="학생이름" style="rounded=0;whiteSpace=wrap;html=1;" vertex="1" parent="1">
          <mxGeometry x="307" y="91" width="90" height="41" as="geometry" />
        </mxCell>
        <mxCell id="Js7-bg6RBJJ9hFsX2lcb-34" style="edgeStyle=none;curved=1;rounded=0;orthogonalLoop=1;jettySize=auto;html=1;exitX=1;exitY=0.5;exitDx=0;exitDy=0;entryX=0;entryY=0.5;entryDx=0;entryDy=0;fontSize=12;startSize=8;endSize=8;" edge="1" parent="1" source="Js7-bg6RBJJ9hFsX2lcb-35" target="Js7-bg6RBJJ9hFsX2lcb-36">
          <mxGeometry relative="1" as="geometry" />
        </mxCell>
        <mxCell id="Js7-bg6RBJJ9hFsX2lcb-35" value="강좌이름" style="rounded=0;whiteSpace=wrap;html=1;" vertex="1" parent="1">
          <mxGeometry x="23" y="234" width="90" height="41" as="geometry" />
        </mxCell>
        <mxCell id="Js7-bg6RBJJ9hFsX2lcb-36" value="강의실" style="rounded=0;whiteSpace=wrap;html=1;" vertex="1" parent="1">
          <mxGeometry x="193" y="234" width="90" height="41" as="geometry" />
        </mxCell>
        <mxCell id="Js7-bg6RBJJ9hFsX2lcb-37" value="&lt;font style=&quot;font-size: 14px;&quot;&gt;학생수강성적&lt;/font&gt;" style="text;strokeColor=none;fillColor=none;html=1;align=left;verticalAlign=middle;whiteSpace=wrap;rounded=0;fontSize=16;fontStyle=1" vertex="1" parent="1">
          <mxGeometry x="307" y="50" width="157" height="23" as="geometry" />
        </mxCell>
        <mxCell id="Js7-bg6RBJJ9hFsX2lcb-38" value="&lt;font style=&quot;font-size: 14px;&quot;&gt;강의실&lt;/font&gt;" style="text;strokeColor=none;fillColor=none;html=1;align=left;verticalAlign=middle;whiteSpace=wrap;rounded=0;fontSize=16;fontStyle=1" vertex="1" parent="1">
          <mxGeometry x="23" y="197" width="157" height="23" as="geometry" />
        </mxCell>
        <mxCell id="Js7-bg6RBJJ9hFsX2lcb-39" value="&lt;span style=&quot;font-size: 14px; font-weight: 400;&quot;&gt;학생수강성적(학생번호, 학생이름, 학과, 주소, 강좌이름)&lt;/span&gt;&lt;div&gt;&lt;span style=&quot;font-size: 14px; font-weight: 400;&quot;&gt;학과(학과, 학과사무실)&lt;br&gt;&lt;/span&gt;&lt;div&gt;&lt;span style=&quot;font-size: 14px; font-weight: 400;&quot;&gt;강의실(강좌이름, 강의실)&lt;/span&gt;&lt;/div&gt;&lt;/div&gt;" style="text;strokeColor=none;fillColor=none;html=1;align=left;verticalAlign=middle;whiteSpace=wrap;rounded=0;fontSize=16;fontStyle=1" vertex="1" parent="1">
          <mxGeometry x="-154" y="457" width="451" height="23" as="geometry" />
        </mxCell>
        <mxCell id="Js7-bg6RBJJ9hFsX2lcb-40" style="edgeStyle=none;curved=1;rounded=0;orthogonalLoop=1;jettySize=auto;html=1;exitX=0.5;exitY=1;exitDx=0;exitDy=0;entryX=0.5;entryY=0;entryDx=0;entryDy=0;fontSize=12;startSize=8;endSize=8;" edge="1" parent="1" source="Js7-bg6RBJJ9hFsX2lcb-41" target="Js7-bg6RBJJ9hFsX2lcb-53">
          <mxGeometry relative="1" as="geometry" />
        </mxCell>
        <mxCell id="Js7-bg6RBJJ9hFsX2lcb-41" value="" style="rounded=0;whiteSpace=wrap;html=1;textOpacity=0;labelBackgroundColor=none;fillColor=none;" vertex="1" parent="1">
          <mxGeometry x="297" y="535" width="104" height="178" as="geometry" />
        </mxCell>
        <mxCell id="Js7-bg6RBJJ9hFsX2lcb-42" style="edgeStyle=none;curved=1;rounded=0;orthogonalLoop=1;jettySize=auto;html=1;exitX=1;exitY=0.5;exitDx=0;exitDy=0;fontSize=12;startSize=8;endSize=8;" edge="1" parent="1" source="Js7-bg6RBJJ9hFsX2lcb-45" target="Js7-bg6RBJJ9hFsX2lcb-47">
          <mxGeometry relative="1" as="geometry">
            <mxPoint x="473" y="568" as="targetPoint" />
          </mxGeometry>
        </mxCell>
        <mxCell id="Js7-bg6RBJJ9hFsX2lcb-43" style="edgeStyle=none;curved=1;rounded=0;orthogonalLoop=1;jettySize=auto;html=1;exitX=1;exitY=0.5;exitDx=0;exitDy=0;entryX=0;entryY=0.5;entryDx=0;entryDy=0;fontSize=12;startSize=8;endSize=8;" edge="1" parent="1" source="Js7-bg6RBJJ9hFsX2lcb-45" target="Js7-bg6RBJJ9hFsX2lcb-48">
          <mxGeometry relative="1" as="geometry" />
        </mxCell>
        <mxCell id="Js7-bg6RBJJ9hFsX2lcb-44" style="edgeStyle=none;curved=1;rounded=0;orthogonalLoop=1;jettySize=auto;html=1;exitX=0.5;exitY=0;exitDx=0;exitDy=0;entryX=0.5;entryY=1;entryDx=0;entryDy=0;fontSize=12;startSize=8;endSize=8;" edge="1" parent="1" source="Js7-bg6RBJJ9hFsX2lcb-45" target="Js7-bg6RBJJ9hFsX2lcb-54">
          <mxGeometry relative="1" as="geometry" />
        </mxCell>
        <mxCell id="Js7-bg6RBJJ9hFsX2lcb-45" value="학생번호" style="rounded=0;whiteSpace=wrap;html=1;" vertex="1" parent="1">
          <mxGeometry x="304" y="547" width="90" height="41" as="geometry" />
        </mxCell>
        <mxCell id="Js7-bg6RBJJ9hFsX2lcb-47" value="학과" style="rounded=0;whiteSpace=wrap;html=1;" vertex="1" parent="1">
          <mxGeometry x="474" y="547" width="90" height="41" as="geometry" />
        </mxCell>
        <mxCell id="Js7-bg6RBJJ9hFsX2lcb-48" value="주소" style="rounded=0;whiteSpace=wrap;html=1;" vertex="1" parent="1">
          <mxGeometry x="474" y="606" width="90" height="41" as="geometry" />
        </mxCell>
        <mxCell id="Js7-bg6RBJJ9hFsX2lcb-51" value="강좌이름" style="rounded=0;whiteSpace=wrap;html=1;" vertex="1" parent="1">
          <mxGeometry x="304" y="665" width="90" height="41" as="geometry" />
        </mxCell>
        <mxCell id="Js7-bg6RBJJ9hFsX2lcb-53" value="성적" style="rounded=0;whiteSpace=wrap;html=1;" vertex="1" parent="1">
          <mxGeometry x="304" y="734" width="90" height="41" as="geometry" />
        </mxCell>
        <mxCell id="Js7-bg6RBJJ9hFsX2lcb-54" value="학생이름" style="rounded=0;whiteSpace=wrap;html=1;" vertex="1" parent="1">
          <mxGeometry x="304" y="477" width="90" height="41" as="geometry" />
        </mxCell>
        <mxCell id="Js7-bg6RBJJ9hFsX2lcb-55" value="&lt;font style=&quot;font-size: 14px;&quot;&gt;학생수강성적&lt;/font&gt;" style="text;strokeColor=none;fillColor=none;html=1;align=left;verticalAlign=middle;whiteSpace=wrap;rounded=0;fontSize=16;fontStyle=1" vertex="1" parent="1">
          <mxGeometry x="304" y="436" width="157" height="23" as="geometry" />
        </mxCell>
        <mxCell id="Js7-bg6RBJJ9hFsX2lcb-56" style="edgeStyle=none;curved=1;rounded=0;orthogonalLoop=1;jettySize=auto;html=1;exitX=1;exitY=0.5;exitDx=0;exitDy=0;entryX=0;entryY=0.5;entryDx=0;entryDy=0;fontSize=12;startSize=8;endSize=8;" edge="1" parent="1" source="Js7-bg6RBJJ9hFsX2lcb-57" target="Js7-bg6RBJJ9hFsX2lcb-58">
          <mxGeometry relative="1" as="geometry" />
        </mxCell>
        <mxCell id="Js7-bg6RBJJ9hFsX2lcb-57" value="강좌이름" style="rounded=0;whiteSpace=wrap;html=1;" vertex="1" parent="1">
          <mxGeometry x="23" y="558" width="90" height="41" as="geometry" />
        </mxCell>
        <mxCell id="Js7-bg6RBJJ9hFsX2lcb-58" value="강의실" style="rounded=0;whiteSpace=wrap;html=1;" vertex="1" parent="1">
          <mxGeometry x="193" y="558" width="90" height="41" as="geometry" />
        </mxCell>
        <mxCell id="Js7-bg6RBJJ9hFsX2lcb-59" value="&lt;font style=&quot;font-size: 14px;&quot;&gt;강의실&lt;/font&gt;" style="text;strokeColor=none;fillColor=none;html=1;align=left;verticalAlign=middle;whiteSpace=wrap;rounded=0;fontSize=16;fontStyle=1" vertex="1" parent="1">
          <mxGeometry x="23" y="521" width="157" height="23" as="geometry" />
        </mxCell>
        <mxCell id="Js7-bg6RBJJ9hFsX2lcb-62" style="edgeStyle=none;curved=1;rounded=0;orthogonalLoop=1;jettySize=auto;html=1;exitX=1;exitY=0.5;exitDx=0;exitDy=0;fontSize=12;startSize=8;endSize=8;" edge="1" parent="1" source="Js7-bg6RBJJ9hFsX2lcb-63">
          <mxGeometry relative="1" as="geometry">
            <mxPoint x="134" y="674" as="targetPoint" />
          </mxGeometry>
        </mxCell>
        <mxCell id="Js7-bg6RBJJ9hFsX2lcb-63" value="학과" style="rounded=0;whiteSpace=wrap;html=1;" vertex="1" parent="1">
          <mxGeometry x="23" y="653" width="90" height="41" as="geometry" />
        </mxCell>
        <mxCell id="Js7-bg6RBJJ9hFsX2lcb-64" value="학과사무실" style="rounded=0;whiteSpace=wrap;html=1;" vertex="1" parent="1">
          <mxGeometry x="135" y="653" width="90" height="41" as="geometry" />
        </mxCell>
        <mxCell id="Js7-bg6RBJJ9hFsX2lcb-65" value="&lt;font style=&quot;font-size: 14px;&quot;&gt;학과&lt;/font&gt;" style="text;strokeColor=none;fillColor=none;html=1;align=left;verticalAlign=middle;whiteSpace=wrap;rounded=0;fontSize=16;fontStyle=1" vertex="1" parent="1">
          <mxGeometry x="23" y="621" width="157" height="23" as="geometry" />
        </mxCell>
        <mxCell id="Js7-bg6RBJJ9hFsX2lcb-66" value="&lt;span style=&quot;font-size: 14px; font-weight: 400;&quot;&gt;학생(학생번호, 학생이름, 학과, 주소)&lt;/span&gt;&lt;div&gt;&lt;span style=&quot;font-size: 14px; font-weight: 400;&quot;&gt;학생성적(학생이름, 강좌이름, 성적)&lt;br&gt;&lt;/span&gt;&lt;div&gt;&lt;span style=&quot;font-size: 14px; font-weight: 400;&quot;&gt;학과(학과, 학과사무실)&lt;br&gt;&lt;/span&gt;&lt;div&gt;&lt;span style=&quot;font-size: 14px; font-weight: 400;&quot;&gt;강의실(강좌이름, 강의실)&lt;/span&gt;&lt;/div&gt;&lt;/div&gt;&lt;/div&gt;" style="text;strokeColor=none;fillColor=none;html=1;align=left;verticalAlign=middle;whiteSpace=wrap;rounded=0;fontSize=16;fontStyle=1" vertex="1" parent="1">
          <mxGeometry x="-154" y="830" width="451" height="23" as="geometry" />
        </mxCell>
        <mxCell id="Js7-bg6RBJJ9hFsX2lcb-69" style="edgeStyle=none;curved=1;rounded=0;orthogonalLoop=1;jettySize=auto;html=1;exitX=1;exitY=0.5;exitDx=0;exitDy=0;fontSize=12;startSize=8;endSize=8;" edge="1" parent="1" source="Js7-bg6RBJJ9hFsX2lcb-72" target="Js7-bg6RBJJ9hFsX2lcb-73">
          <mxGeometry relative="1" as="geometry">
            <mxPoint x="482" y="1015" as="targetPoint" />
          </mxGeometry>
        </mxCell>
        <mxCell id="Js7-bg6RBJJ9hFsX2lcb-70" style="edgeStyle=none;curved=1;rounded=0;orthogonalLoop=1;jettySize=auto;html=1;exitX=1;exitY=0.5;exitDx=0;exitDy=0;entryX=0;entryY=0.5;entryDx=0;entryDy=0;fontSize=12;startSize=8;endSize=8;" edge="1" parent="1" source="Js7-bg6RBJJ9hFsX2lcb-72" target="Js7-bg6RBJJ9hFsX2lcb-74">
          <mxGeometry relative="1" as="geometry" />
        </mxCell>
        <mxCell id="Js7-bg6RBJJ9hFsX2lcb-71" style="edgeStyle=none;curved=1;rounded=0;orthogonalLoop=1;jettySize=auto;html=1;exitX=0.5;exitY=0;exitDx=0;exitDy=0;entryX=0.5;entryY=1;entryDx=0;entryDy=0;fontSize=12;startSize=8;endSize=8;" edge="1" parent="1" source="Js7-bg6RBJJ9hFsX2lcb-72" target="Js7-bg6RBJJ9hFsX2lcb-79">
          <mxGeometry relative="1" as="geometry" />
        </mxCell>
        <mxCell id="Js7-bg6RBJJ9hFsX2lcb-72" value="학생번호" style="rounded=0;whiteSpace=wrap;html=1;" vertex="1" parent="1">
          <mxGeometry x="313" y="994" width="90" height="41" as="geometry" />
        </mxCell>
        <mxCell id="Js7-bg6RBJJ9hFsX2lcb-73" value="학과" style="rounded=0;whiteSpace=wrap;html=1;" vertex="1" parent="1">
          <mxGeometry x="483" y="994" width="90" height="41" as="geometry" />
        </mxCell>
        <mxCell id="Js7-bg6RBJJ9hFsX2lcb-74" value="주소" style="rounded=0;whiteSpace=wrap;html=1;" vertex="1" parent="1">
          <mxGeometry x="483" y="1053" width="90" height="41" as="geometry" />
        </mxCell>
        <mxCell id="Js7-bg6RBJJ9hFsX2lcb-79" value="학생이름" style="rounded=0;whiteSpace=wrap;html=1;" vertex="1" parent="1">
          <mxGeometry x="313" y="924" width="90" height="41" as="geometry" />
        </mxCell>
        <mxCell id="Js7-bg6RBJJ9hFsX2lcb-80" value="&lt;font style=&quot;font-size: 14px;&quot;&gt;학생수강성적&lt;/font&gt;" style="text;strokeColor=none;fillColor=none;html=1;align=left;verticalAlign=middle;whiteSpace=wrap;rounded=0;fontSize=16;fontStyle=1" vertex="1" parent="1">
          <mxGeometry x="313" y="883" width="157" height="23" as="geometry" />
        </mxCell>
        <mxCell id="Js7-bg6RBJJ9hFsX2lcb-81" style="edgeStyle=none;curved=1;rounded=0;orthogonalLoop=1;jettySize=auto;html=1;exitX=1;exitY=0.5;exitDx=0;exitDy=0;entryX=0;entryY=0.5;entryDx=0;entryDy=0;fontSize=12;startSize=8;endSize=8;" edge="1" parent="1" source="Js7-bg6RBJJ9hFsX2lcb-82" target="Js7-bg6RBJJ9hFsX2lcb-83">
          <mxGeometry relative="1" as="geometry" />
        </mxCell>
        <mxCell id="Js7-bg6RBJJ9hFsX2lcb-82" value="강좌이름" style="rounded=0;whiteSpace=wrap;html=1;" vertex="1" parent="1">
          <mxGeometry x="32" y="1005" width="90" height="41" as="geometry" />
        </mxCell>
        <mxCell id="Js7-bg6RBJJ9hFsX2lcb-83" value="강의실" style="rounded=0;whiteSpace=wrap;html=1;" vertex="1" parent="1">
          <mxGeometry x="202" y="1005" width="90" height="41" as="geometry" />
        </mxCell>
        <mxCell id="Js7-bg6RBJJ9hFsX2lcb-84" value="&lt;font style=&quot;font-size: 14px;&quot;&gt;강의실&lt;/font&gt;" style="text;strokeColor=none;fillColor=none;html=1;align=left;verticalAlign=middle;whiteSpace=wrap;rounded=0;fontSize=16;fontStyle=1" vertex="1" parent="1">
          <mxGeometry x="32" y="968" width="157" height="23" as="geometry" />
        </mxCell>
        <mxCell id="Js7-bg6RBJJ9hFsX2lcb-85" style="edgeStyle=none;curved=1;rounded=0;orthogonalLoop=1;jettySize=auto;html=1;exitX=1;exitY=0.5;exitDx=0;exitDy=0;fontSize=12;startSize=8;endSize=8;" edge="1" parent="1" source="Js7-bg6RBJJ9hFsX2lcb-86">
          <mxGeometry relative="1" as="geometry">
            <mxPoint x="143" y="1121" as="targetPoint" />
          </mxGeometry>
        </mxCell>
        <mxCell id="Js7-bg6RBJJ9hFsX2lcb-86" value="학과" style="rounded=0;whiteSpace=wrap;html=1;" vertex="1" parent="1">
          <mxGeometry x="32" y="1100" width="90" height="41" as="geometry" />
        </mxCell>
        <mxCell id="Js7-bg6RBJJ9hFsX2lcb-87" value="학과사무실" style="rounded=0;whiteSpace=wrap;html=1;" vertex="1" parent="1">
          <mxGeometry x="144" y="1100" width="90" height="41" as="geometry" />
        </mxCell>
        <mxCell id="Js7-bg6RBJJ9hFsX2lcb-88" value="&lt;font style=&quot;font-size: 14px;&quot;&gt;학과&lt;/font&gt;" style="text;strokeColor=none;fillColor=none;html=1;align=left;verticalAlign=middle;whiteSpace=wrap;rounded=0;fontSize=16;fontStyle=1" vertex="1" parent="1">
          <mxGeometry x="32" y="1068" width="157" height="23" as="geometry" />
        </mxCell>
        <mxCell id="Js7-bg6RBJJ9hFsX2lcb-91" style="edgeStyle=none;curved=1;rounded=0;orthogonalLoop=1;jettySize=auto;html=1;exitX=0.5;exitY=1;exitDx=0;exitDy=0;entryX=0.5;entryY=0;entryDx=0;entryDy=0;fontSize=12;startSize=8;endSize=8;" edge="1" parent="1" source="Js7-bg6RBJJ9hFsX2lcb-92" target="Js7-bg6RBJJ9hFsX2lcb-95">
          <mxGeometry relative="1" as="geometry" />
        </mxCell>
        <mxCell id="Js7-bg6RBJJ9hFsX2lcb-92" value="" style="rounded=0;whiteSpace=wrap;html=1;textOpacity=0;labelBackgroundColor=none;fillColor=none;" vertex="1" parent="1">
          <mxGeometry x="-110" y="1009" width="104" height="178" as="geometry" />
        </mxCell>
        <mxCell id="Js7-bg6RBJJ9hFsX2lcb-93" value="학생번호" style="rounded=0;whiteSpace=wrap;html=1;" vertex="1" parent="1">
          <mxGeometry x="-103" y="1021" width="90" height="41" as="geometry" />
        </mxCell>
        <mxCell id="Js7-bg6RBJJ9hFsX2lcb-94" value="강좌이름" style="rounded=0;whiteSpace=wrap;html=1;" vertex="1" parent="1">
          <mxGeometry x="-103" y="1139" width="90" height="41" as="geometry" />
        </mxCell>
        <mxCell id="Js7-bg6RBJJ9hFsX2lcb-95" value="성적" style="rounded=0;whiteSpace=wrap;html=1;" vertex="1" parent="1">
          <mxGeometry x="-103" y="1208" width="90" height="41" as="geometry" />
        </mxCell>
        <mxCell id="Js7-bg6RBJJ9hFsX2lcb-96" value="&lt;font style=&quot;font-size: 14px;&quot;&gt;학생성적&lt;/font&gt;" style="text;strokeColor=none;fillColor=none;html=1;align=left;verticalAlign=middle;whiteSpace=wrap;rounded=0;fontSize=16;fontStyle=1" vertex="1" parent="1">
          <mxGeometry x="-110" y="978" width="157" height="23" as="geometry" />
        </mxCell>
      </root>
    </mxGraphModel>
  </diagram>
  <diagram id="yq4TWZe7kWfm16Wl31_D" name="배송">
    <mxGraphModel dx="1086" dy="1628" grid="0" gridSize="10" guides="1" tooltips="1" connect="1" arrows="1" fold="1" page="0" pageScale="1" pageWidth="827" pageHeight="1169" math="0" shadow="0">
      <root>
        <mxCell id="0" />
        <mxCell id="1" parent="0" />
        <mxCell id="JrZqojptuM8crSKLlRB1-11" style="edgeStyle=none;curved=1;rounded=0;orthogonalLoop=1;jettySize=auto;html=1;fontSize=12;startSize=8;endSize=8;exitX=0;exitY=0.129;exitDx=0;exitDy=0;exitPerimeter=0;" parent="1" source="JrZqojptuM8crSKLlRB1-10" edge="1">
          <mxGeometry relative="1" as="geometry">
            <mxPoint x="133" y="-434" as="targetPoint" />
            <mxPoint x="190" y="-471" as="sourcePoint" />
            <Array as="points">
              <mxPoint x="181" y="-474" />
            </Array>
          </mxGeometry>
        </mxCell>
        <mxCell id="tNVAHOLbdQlKucM9I3iw-3" style="edgeStyle=none;curved=1;rounded=0;orthogonalLoop=1;jettySize=auto;html=1;exitX=1;exitY=0;exitDx=0;exitDy=0;entryX=0;entryY=0.5;entryDx=0;entryDy=0;fontSize=12;startSize=8;endSize=8;" edge="1" parent="1" source="JrZqojptuM8crSKLlRB1-10" target="tNVAHOLbdQlKucM9I3iw-1">
          <mxGeometry relative="1" as="geometry" />
        </mxCell>
        <mxCell id="JrZqojptuM8crSKLlRB1-10" value="" style="rounded=0;whiteSpace=wrap;html=1;" parent="1" vertex="1">
          <mxGeometry x="194" y="-500" width="99" height="116" as="geometry" />
        </mxCell>
        <mxCell id="JrZqojptuM8crSKLlRB1-7" style="edgeStyle=none;curved=1;rounded=0;orthogonalLoop=1;jettySize=auto;html=1;exitX=1;exitY=0.5;exitDx=0;exitDy=0;entryX=0;entryY=0.5;entryDx=0;entryDy=0;fontSize=12;startSize=8;endSize=8;" parent="1" source="56hTXIhSETMB-nbZ3Nvp-1" target="JrZqojptuM8crSKLlRB1-3" edge="1">
          <mxGeometry relative="1" as="geometry" />
        </mxCell>
        <mxCell id="56hTXIhSETMB-nbZ3Nvp-1" value="shipname" style="rounded=0;whiteSpace=wrap;html=1;" parent="1" vertex="1">
          <mxGeometry x="198" y="-433" width="90" height="41" as="geometry" />
        </mxCell>
        <mxCell id="JrZqojptuM8crSKLlRB1-1" value="&lt;span style=&quot;font-size: 14px;&quot;&gt;Shipping&lt;/span&gt;" style="text;strokeColor=none;fillColor=none;html=1;align=left;verticalAlign=middle;whiteSpace=wrap;rounded=0;fontSize=16;fontStyle=1" parent="1" vertex="1">
          <mxGeometry x="63" y="-536" width="157" height="23" as="geometry" />
        </mxCell>
        <mxCell id="JrZqojptuM8crSKLlRB1-3" value="shiptype" style="rounded=0;whiteSpace=wrap;html=1;" parent="1" vertex="1">
          <mxGeometry x="317" y="-433" width="90" height="41" as="geometry" />
        </mxCell>
        <mxCell id="JrZqojptuM8crSKLlRB1-6" style="edgeStyle=none;curved=1;rounded=0;orthogonalLoop=1;jettySize=auto;html=1;exitX=1;exitY=0.5;exitDx=0;exitDy=0;fontSize=12;startSize=8;endSize=8;" parent="1" source="JrZqojptuM8crSKLlRB1-4" target="56hTXIhSETMB-nbZ3Nvp-1" edge="1">
          <mxGeometry relative="1" as="geometry" />
        </mxCell>
        <mxCell id="JrZqojptuM8crSKLlRB1-8" style="edgeStyle=none;curved=1;rounded=0;orthogonalLoop=1;jettySize=auto;html=1;exitX=1;exitY=0.5;exitDx=0;exitDy=0;entryX=0;entryY=0.5;entryDx=0;entryDy=0;fontSize=12;startSize=8;endSize=8;" parent="1" source="JrZqojptuM8crSKLlRB1-4" target="JrZqojptuM8crSKLlRB1-5" edge="1">
          <mxGeometry relative="1" as="geometry" />
        </mxCell>
        <mxCell id="JrZqojptuM8crSKLlRB1-4" value="voyageID" style="rounded=0;whiteSpace=wrap;html=1;" parent="1" vertex="1">
          <mxGeometry x="69" y="-433" width="90" height="41" as="geometry" />
        </mxCell>
        <mxCell id="JrZqojptuM8crSKLlRB1-5" value="cargo" style="rounded=0;whiteSpace=wrap;html=1;" parent="1" vertex="1">
          <mxGeometry x="198" y="-373" width="90" height="41" as="geometry" />
        </mxCell>
        <mxCell id="JrZqojptuM8crSKLlRB1-9" value="date" style="rounded=0;whiteSpace=wrap;html=1;" parent="1" vertex="1">
          <mxGeometry x="198" y="-494" width="90" height="41" as="geometry" />
        </mxCell>
        <mxCell id="KTYG2yYoi5f2nlqzwhqf-1" value="&lt;span style=&quot;color: rgb(29, 28, 29); font-family: Monaco, Menlo, Consolas, &amp;quot;Courier New&amp;quot;, monospace; font-size: 12px; font-style: normal; font-variant-ligatures: none; font-variant-caps: normal; font-weight: 400; letter-spacing: normal; orphans: 2; text-align: left; text-indent: 0px; text-transform: none; widows: 2; word-spacing: 0px; -webkit-text-stroke-width: 0px; white-space: pre-wrap; background-color: rgba(29, 28, 29, 0.04); text-decoration-thickness: initial; text-decoration-style: initial; text-decoration-color: initial; display: inline !important; float: none;&quot;&gt;shipname -&amp;gt; shiptype&#xa;voyageID -&amp;gt; shipname, cargo&#xa;{shipname, date} -&amp;gt; voyageID, port&lt;/span&gt;" style="text;whiteSpace=wrap;html=1;" parent="1" vertex="1">
          <mxGeometry x="-172" y="-453" width="252" height="65" as="geometry" />
        </mxCell>
        <mxCell id="KTYG2yYoi5f2nlqzwhqf-2" value="&lt;span style=&quot;font-size: 14px;&quot;&gt;함수 종속성 다이어그램&lt;/span&gt;" style="text;strokeColor=none;fillColor=none;html=1;align=left;verticalAlign=middle;whiteSpace=wrap;rounded=0;fontSize=16;fontStyle=1" parent="1" vertex="1">
          <mxGeometry x="-172" y="-487" width="157" height="23" as="geometry" />
        </mxCell>
        <mxCell id="tNVAHOLbdQlKucM9I3iw-1" value="port" style="rounded=0;whiteSpace=wrap;html=1;" vertex="1" parent="1">
          <mxGeometry x="317" y="-502" width="90" height="41" as="geometry" />
        </mxCell>
        <mxCell id="_W9MsRtc0-dbIf1DSG1E-1" value="&lt;span style=&quot;font-size: 14px;&quot;&gt;Voyage &lt;span style=&quot;font-weight: normal;&quot;&gt;(&lt;u&gt;shipment, date&lt;/u&gt;, shiptype, voyageID, port, cargo)&lt;/span&gt;&lt;/span&gt;" style="text;strokeColor=none;fillColor=none;html=1;align=left;verticalAlign=middle;whiteSpace=wrap;rounded=0;fontSize=16;fontStyle=1" vertex="1" parent="1">
          <mxGeometry x="67" y="-322" width="372" height="23" as="geometry" />
        </mxCell>
        <mxCell id="_W9MsRtc0-dbIf1DSG1E-2" value="&lt;span style=&quot;color: rgb(0, 0, 0); font-family: Helvetica; font-size: 14px; font-style: normal; font-variant-ligatures: normal; font-variant-caps: normal; font-weight: 700; letter-spacing: normal; orphans: 2; text-align: left; text-indent: 0px; text-transform: none; widows: 2; word-spacing: 0px; -webkit-text-stroke-width: 0px; white-space: normal; background-color: rgb(255, 255, 255); text-decoration-thickness: initial; text-decoration-style: initial; text-decoration-color: initial; display: inline !important; float: none;&quot;&gt;후보키&lt;span&gt;&amp;nbsp;&lt;/span&gt;&lt;/span&gt;&lt;span style=&quot;forced-color-adjust: none; color: rgb(0, 0, 0); font-family: Helvetica; font-size: 14px; font-style: normal; font-variant-ligatures: normal; font-variant-caps: normal; letter-spacing: normal; orphans: 2; text-align: left; text-indent: 0px; text-transform: none; widows: 2; word-spacing: 0px; -webkit-text-stroke-width: 0px; white-space: normal; background-color: rgb(255, 255, 255); text-decoration-thickness: initial; text-decoration-style: initial; text-decoration-color: initial; font-weight: normal;&quot;&gt;(모든 행을 유일하게 식별할 수 있는 속성들의 집합)&amp;nbsp; {shipname, date}&lt;/span&gt;" style="text;whiteSpace=wrap;html=1;" vertex="1" parent="1">
          <mxGeometry x="-172" y="-262" width="503" height="39" as="geometry" />
        </mxCell>
        <mxCell id="_W9MsRtc0-dbIf1DSG1E-3" value="&lt;span style=&quot;font-size: 14px;&quot;&gt;제 2 정규형 (부분함수종속성 제거)&lt;/span&gt;" style="text;strokeColor=none;fillColor=none;html=1;align=left;verticalAlign=middle;whiteSpace=wrap;rounded=0;fontSize=16;fontStyle=1" vertex="1" parent="1">
          <mxGeometry x="-172" y="-187" width="301" height="23" as="geometry" />
        </mxCell>
        <mxCell id="_W9MsRtc0-dbIf1DSG1E-4" value="&lt;span style=&quot;font-size: 14px;&quot;&gt;Voyage &lt;span style=&quot;font-weight: normal;&quot;&gt;(&lt;u&gt;shipment, date&lt;/u&gt;,&amp;nbsp; voyageID, port, cargo)&lt;/span&gt;&lt;/span&gt;" style="text;strokeColor=none;fillColor=none;html=1;align=left;verticalAlign=middle;whiteSpace=wrap;rounded=0;fontSize=16;fontStyle=1" vertex="1" parent="1">
          <mxGeometry x="-152" y="-49" width="372" height="23" as="geometry" />
        </mxCell>
        <mxCell id="_W9MsRtc0-dbIf1DSG1E-7" style="edgeStyle=none;curved=1;rounded=0;orthogonalLoop=1;jettySize=auto;html=1;exitX=1;exitY=0.5;exitDx=0;exitDy=0;entryX=0;entryY=0.5;entryDx=0;entryDy=0;fontSize=12;startSize=8;endSize=8;" edge="1" parent="1" source="_W9MsRtc0-dbIf1DSG1E-8" target="_W9MsRtc0-dbIf1DSG1E-9">
          <mxGeometry relative="1" as="geometry" />
        </mxCell>
        <mxCell id="_W9MsRtc0-dbIf1DSG1E-8" value="shipname" style="rounded=0;whiteSpace=wrap;html=1;" vertex="1" parent="1">
          <mxGeometry x="-108" y="-105" width="90" height="41" as="geometry" />
        </mxCell>
        <mxCell id="_W9MsRtc0-dbIf1DSG1E-9" value="shiptype" style="rounded=0;whiteSpace=wrap;html=1;" vertex="1" parent="1">
          <mxGeometry x="11" y="-105" width="90" height="41" as="geometry" />
        </mxCell>
        <mxCell id="_W9MsRtc0-dbIf1DSG1E-10" style="edgeStyle=none;curved=1;rounded=0;orthogonalLoop=1;jettySize=auto;html=1;fontSize=12;startSize=8;endSize=8;exitX=0;exitY=0.129;exitDx=0;exitDy=0;exitPerimeter=0;" edge="1" parent="1" source="_W9MsRtc0-dbIf1DSG1E-12">
          <mxGeometry relative="1" as="geometry">
            <mxPoint x="-44" y="53" as="targetPoint" />
            <mxPoint x="13" y="16" as="sourcePoint" />
            <Array as="points">
              <mxPoint x="4" y="13" />
            </Array>
          </mxGeometry>
        </mxCell>
        <mxCell id="_W9MsRtc0-dbIf1DSG1E-11" style="edgeStyle=none;curved=1;rounded=0;orthogonalLoop=1;jettySize=auto;html=1;exitX=1;exitY=0;exitDx=0;exitDy=0;entryX=0;entryY=0.5;entryDx=0;entryDy=0;fontSize=12;startSize=8;endSize=8;" edge="1" parent="1" source="_W9MsRtc0-dbIf1DSG1E-12" target="_W9MsRtc0-dbIf1DSG1E-21">
          <mxGeometry relative="1" as="geometry" />
        </mxCell>
        <mxCell id="_W9MsRtc0-dbIf1DSG1E-12" value="" style="rounded=0;whiteSpace=wrap;html=1;" vertex="1" parent="1">
          <mxGeometry x="17" y="-13" width="99" height="116" as="geometry" />
        </mxCell>
        <mxCell id="_W9MsRtc0-dbIf1DSG1E-14" value="shipname" style="rounded=0;whiteSpace=wrap;html=1;" vertex="1" parent="1">
          <mxGeometry x="21" y="54" width="90" height="41" as="geometry" />
        </mxCell>
        <mxCell id="_W9MsRtc0-dbIf1DSG1E-16" style="edgeStyle=none;curved=1;rounded=0;orthogonalLoop=1;jettySize=auto;html=1;exitX=1;exitY=0.5;exitDx=0;exitDy=0;fontSize=12;startSize=8;endSize=8;" edge="1" parent="1" source="_W9MsRtc0-dbIf1DSG1E-18" target="_W9MsRtc0-dbIf1DSG1E-14">
          <mxGeometry relative="1" as="geometry" />
        </mxCell>
        <mxCell id="_W9MsRtc0-dbIf1DSG1E-17" style="edgeStyle=none;curved=1;rounded=0;orthogonalLoop=1;jettySize=auto;html=1;exitX=1;exitY=0.5;exitDx=0;exitDy=0;entryX=0;entryY=0.5;entryDx=0;entryDy=0;fontSize=12;startSize=8;endSize=8;" edge="1" parent="1" source="_W9MsRtc0-dbIf1DSG1E-18" target="_W9MsRtc0-dbIf1DSG1E-19">
          <mxGeometry relative="1" as="geometry" />
        </mxCell>
        <mxCell id="_W9MsRtc0-dbIf1DSG1E-18" value="voyageID" style="rounded=0;whiteSpace=wrap;html=1;" vertex="1" parent="1">
          <mxGeometry x="-108" y="54" width="90" height="41" as="geometry" />
        </mxCell>
        <mxCell id="_W9MsRtc0-dbIf1DSG1E-19" value="cargo" style="rounded=0;whiteSpace=wrap;html=1;" vertex="1" parent="1">
          <mxGeometry x="21" y="114" width="90" height="41" as="geometry" />
        </mxCell>
        <mxCell id="_W9MsRtc0-dbIf1DSG1E-20" value="date" style="rounded=0;whiteSpace=wrap;html=1;" vertex="1" parent="1">
          <mxGeometry x="21" y="-7" width="90" height="41" as="geometry" />
        </mxCell>
        <mxCell id="_W9MsRtc0-dbIf1DSG1E-21" value="port" style="rounded=0;whiteSpace=wrap;html=1;" vertex="1" parent="1">
          <mxGeometry x="140" y="-15" width="90" height="41" as="geometry" />
        </mxCell>
        <mxCell id="_W9MsRtc0-dbIf1DSG1E-22" value="&lt;span style=&quot;font-size: 14px;&quot;&gt;Ship&lt;span style=&quot;font-weight: normal;&quot;&gt;(&lt;u&gt;shipname&lt;/u&gt;, shiptype)&lt;/span&gt;&lt;/span&gt;" style="text;strokeColor=none;fillColor=none;html=1;align=left;verticalAlign=middle;whiteSpace=wrap;rounded=0;fontSize=16;fontStyle=1" vertex="1" parent="1">
          <mxGeometry x="-152" y="-146" width="268" height="23" as="geometry" />
        </mxCell>
        <mxCell id="_W9MsRtc0-dbIf1DSG1E-23" value="&lt;span style=&quot;font-size: 14px;&quot;&gt;제 3 정규형 (이행 함수 종속성 제거)&lt;/span&gt;" style="text;strokeColor=none;fillColor=none;html=1;align=left;verticalAlign=middle;whiteSpace=wrap;rounded=0;fontSize=16;fontStyle=1" vertex="1" parent="1">
          <mxGeometry x="-172" y="199" width="301" height="23" as="geometry" />
        </mxCell>
        <mxCell id="_W9MsRtc0-dbIf1DSG1E-24" value="&lt;span style=&quot;font-size: 14px;&quot;&gt;Voyage &lt;span style=&quot;font-weight: normal;&quot;&gt;(&lt;u&gt;shipment, date&lt;/u&gt;,&amp;nbsp; voyageID, port)&lt;/span&gt;&lt;/span&gt;" style="text;strokeColor=none;fillColor=none;html=1;align=left;verticalAlign=middle;whiteSpace=wrap;rounded=0;fontSize=16;fontStyle=1" vertex="1" parent="1">
          <mxGeometry x="-167" y="336" width="372" height="23" as="geometry" />
        </mxCell>
        <mxCell id="_W9MsRtc0-dbIf1DSG1E-25" style="edgeStyle=none;curved=1;rounded=0;orthogonalLoop=1;jettySize=auto;html=1;exitX=1;exitY=0.5;exitDx=0;exitDy=0;entryX=0;entryY=0.5;entryDx=0;entryDy=0;fontSize=12;startSize=8;endSize=8;" edge="1" parent="1" source="_W9MsRtc0-dbIf1DSG1E-26" target="_W9MsRtc0-dbIf1DSG1E-27">
          <mxGeometry relative="1" as="geometry" />
        </mxCell>
        <mxCell id="_W9MsRtc0-dbIf1DSG1E-26" value="shipname" style="rounded=0;whiteSpace=wrap;html=1;" vertex="1" parent="1">
          <mxGeometry x="-123" y="280" width="90" height="41" as="geometry" />
        </mxCell>
        <mxCell id="_W9MsRtc0-dbIf1DSG1E-27" value="shiptype" style="rounded=0;whiteSpace=wrap;html=1;" vertex="1" parent="1">
          <mxGeometry x="-4" y="280" width="90" height="41" as="geometry" />
        </mxCell>
        <mxCell id="_W9MsRtc0-dbIf1DSG1E-28" style="edgeStyle=none;curved=1;rounded=0;orthogonalLoop=1;jettySize=auto;html=1;fontSize=12;startSize=8;endSize=8;exitX=0;exitY=0.129;exitDx=0;exitDy=0;exitPerimeter=0;" edge="1" parent="1" source="_W9MsRtc0-dbIf1DSG1E-30">
          <mxGeometry relative="1" as="geometry">
            <mxPoint x="-59" y="438" as="targetPoint" />
            <mxPoint x="-2" y="401" as="sourcePoint" />
            <Array as="points">
              <mxPoint x="-11" y="398" />
            </Array>
          </mxGeometry>
        </mxCell>
        <mxCell id="_W9MsRtc0-dbIf1DSG1E-29" style="edgeStyle=none;curved=1;rounded=0;orthogonalLoop=1;jettySize=auto;html=1;exitX=1;exitY=0;exitDx=0;exitDy=0;entryX=0;entryY=0.5;entryDx=0;entryDy=0;fontSize=12;startSize=8;endSize=8;" edge="1" parent="1" source="_W9MsRtc0-dbIf1DSG1E-30" target="_W9MsRtc0-dbIf1DSG1E-37">
          <mxGeometry relative="1" as="geometry" />
        </mxCell>
        <mxCell id="_W9MsRtc0-dbIf1DSG1E-30" value="" style="rounded=0;whiteSpace=wrap;html=1;" vertex="1" parent="1">
          <mxGeometry x="2" y="372" width="99" height="116" as="geometry" />
        </mxCell>
        <mxCell id="_W9MsRtc0-dbIf1DSG1E-31" value="shipname" style="rounded=0;whiteSpace=wrap;html=1;" vertex="1" parent="1">
          <mxGeometry x="6" y="439" width="90" height="41" as="geometry" />
        </mxCell>
        <mxCell id="_W9MsRtc0-dbIf1DSG1E-32" style="edgeStyle=none;curved=1;rounded=0;orthogonalLoop=1;jettySize=auto;html=1;exitX=1;exitY=0.5;exitDx=0;exitDy=0;fontSize=12;startSize=8;endSize=8;" edge="1" parent="1" source="_W9MsRtc0-dbIf1DSG1E-34" target="_W9MsRtc0-dbIf1DSG1E-31">
          <mxGeometry relative="1" as="geometry" />
        </mxCell>
        <mxCell id="_W9MsRtc0-dbIf1DSG1E-34" value="voyageID" style="rounded=0;whiteSpace=wrap;html=1;" vertex="1" parent="1">
          <mxGeometry x="-123" y="439" width="90" height="41" as="geometry" />
        </mxCell>
        <mxCell id="_W9MsRtc0-dbIf1DSG1E-36" value="date" style="rounded=0;whiteSpace=wrap;html=1;" vertex="1" parent="1">
          <mxGeometry x="6" y="378" width="90" height="41" as="geometry" />
        </mxCell>
        <mxCell id="_W9MsRtc0-dbIf1DSG1E-37" value="port" style="rounded=0;whiteSpace=wrap;html=1;" vertex="1" parent="1">
          <mxGeometry x="125" y="370" width="90" height="41" as="geometry" />
        </mxCell>
        <mxCell id="_W9MsRtc0-dbIf1DSG1E-38" value="&lt;span style=&quot;font-size: 14px;&quot;&gt;Ship&lt;span style=&quot;font-weight: normal;&quot;&gt;(&lt;u&gt;shipname&lt;/u&gt;, shiptype)&lt;/span&gt;&lt;/span&gt;" style="text;strokeColor=none;fillColor=none;html=1;align=left;verticalAlign=middle;whiteSpace=wrap;rounded=0;fontSize=16;fontStyle=1" vertex="1" parent="1">
          <mxGeometry x="-167" y="239" width="268" height="23" as="geometry" />
        </mxCell>
        <mxCell id="_W9MsRtc0-dbIf1DSG1E-41" style="edgeStyle=none;curved=1;rounded=0;orthogonalLoop=1;jettySize=auto;html=1;exitX=1;exitY=0.5;exitDx=0;exitDy=0;entryX=0;entryY=0.5;entryDx=0;entryDy=0;fontSize=12;startSize=8;endSize=8;" edge="1" parent="1" source="_W9MsRtc0-dbIf1DSG1E-39" target="_W9MsRtc0-dbIf1DSG1E-40">
          <mxGeometry relative="1" as="geometry" />
        </mxCell>
        <mxCell id="_W9MsRtc0-dbIf1DSG1E-39" value="voyageID" style="rounded=0;whiteSpace=wrap;html=1;" vertex="1" parent="1">
          <mxGeometry x="248" y="370" width="90" height="41" as="geometry" />
        </mxCell>
        <mxCell id="_W9MsRtc0-dbIf1DSG1E-40" value="cargo" style="rounded=0;whiteSpace=wrap;html=1;" vertex="1" parent="1">
          <mxGeometry x="371" y="370" width="90" height="41" as="geometry" />
        </mxCell>
        <mxCell id="_W9MsRtc0-dbIf1DSG1E-42" value="&lt;span style=&quot;font-size: 14px;&quot;&gt;Cargo&lt;span style=&quot;font-weight: normal;&quot;&gt;(&lt;u&gt;voyageID&lt;/u&gt;, cargo)&lt;/span&gt;&lt;/span&gt;" style="text;strokeColor=none;fillColor=none;html=1;align=left;verticalAlign=middle;whiteSpace=wrap;rounded=0;fontSize=16;fontStyle=1" vertex="1" parent="1">
          <mxGeometry x="248" y="330" width="268" height="23" as="geometry" />
        </mxCell>
        <mxCell id="_W9MsRtc0-dbIf1DSG1E-43" value="&lt;span style=&quot;font-size: 14px;&quot;&gt;BCNF 정규형 (결정자 함수 종속 제거)&lt;/span&gt;" style="text;strokeColor=none;fillColor=none;html=1;align=left;verticalAlign=middle;whiteSpace=wrap;rounded=0;fontSize=16;fontStyle=1" vertex="1" parent="1">
          <mxGeometry x="-172" y="525" width="301" height="23" as="geometry" />
        </mxCell>
        <mxCell id="_W9MsRtc0-dbIf1DSG1E-44" value="&lt;span style=&quot;font-size: 14px;&quot;&gt;VoyageDetail&amp;nbsp;&lt;span style=&quot;font-weight: normal;&quot;&gt;(&lt;u&gt;date&lt;/u&gt;,&amp;nbsp; &lt;u&gt;voyageID&lt;/u&gt;, port)&lt;/span&gt;&lt;/span&gt;" style="text;strokeColor=none;fillColor=none;html=1;align=left;verticalAlign=middle;whiteSpace=wrap;rounded=0;fontSize=16;fontStyle=1" vertex="1" parent="1">
          <mxGeometry x="-156" y="658" width="372" height="23" as="geometry" />
        </mxCell>
        <mxCell id="_W9MsRtc0-dbIf1DSG1E-45" style="edgeStyle=none;curved=1;rounded=0;orthogonalLoop=1;jettySize=auto;html=1;exitX=1;exitY=0.5;exitDx=0;exitDy=0;entryX=0;entryY=0.5;entryDx=0;entryDy=0;fontSize=12;startSize=8;endSize=8;" edge="1" parent="1" source="_W9MsRtc0-dbIf1DSG1E-46" target="_W9MsRtc0-dbIf1DSG1E-47">
          <mxGeometry relative="1" as="geometry" />
        </mxCell>
        <mxCell id="_W9MsRtc0-dbIf1DSG1E-46" value="shipname" style="rounded=0;whiteSpace=wrap;html=1;" vertex="1" parent="1">
          <mxGeometry x="-112" y="602" width="90" height="41" as="geometry" />
        </mxCell>
        <mxCell id="_W9MsRtc0-dbIf1DSG1E-47" value="shiptype" style="rounded=0;whiteSpace=wrap;html=1;" vertex="1" parent="1">
          <mxGeometry x="7" y="602" width="90" height="41" as="geometry" />
        </mxCell>
        <mxCell id="_W9MsRtc0-dbIf1DSG1E-49" style="edgeStyle=none;curved=1;rounded=0;orthogonalLoop=1;jettySize=auto;html=1;exitX=1;exitY=0.5;exitDx=0;exitDy=0;entryX=0;entryY=0.5;entryDx=0;entryDy=0;fontSize=12;startSize=8;endSize=8;" edge="1" parent="1" source="_W9MsRtc0-dbIf1DSG1E-50" target="_W9MsRtc0-dbIf1DSG1E-55">
          <mxGeometry relative="1" as="geometry" />
        </mxCell>
        <mxCell id="_W9MsRtc0-dbIf1DSG1E-50" value="" style="rounded=0;whiteSpace=wrap;html=1;" vertex="1" parent="1">
          <mxGeometry x="-105" y="694" width="99" height="116" as="geometry" />
        </mxCell>
        <mxCell id="_W9MsRtc0-dbIf1DSG1E-53" value="voyageID" style="rounded=0;whiteSpace=wrap;html=1;" vertex="1" parent="1">
          <mxGeometry x="-100.5" y="762" width="90" height="41" as="geometry" />
        </mxCell>
        <mxCell id="_W9MsRtc0-dbIf1DSG1E-54" value="date" style="rounded=0;whiteSpace=wrap;html=1;" vertex="1" parent="1">
          <mxGeometry x="-101" y="700" width="90" height="41" as="geometry" />
        </mxCell>
        <mxCell id="_W9MsRtc0-dbIf1DSG1E-55" value="port" style="rounded=0;whiteSpace=wrap;html=1;" vertex="1" parent="1">
          <mxGeometry x="19" y="731.5" width="90" height="41" as="geometry" />
        </mxCell>
        <mxCell id="_W9MsRtc0-dbIf1DSG1E-56" value="&lt;span style=&quot;font-size: 14px;&quot;&gt;Ship&lt;span style=&quot;font-weight: normal;&quot;&gt;(&lt;u&gt;shipname&lt;/u&gt;, shiptype)&lt;/span&gt;&lt;/span&gt;" style="text;strokeColor=none;fillColor=none;html=1;align=left;verticalAlign=middle;whiteSpace=wrap;rounded=0;fontSize=16;fontStyle=1" vertex="1" parent="1">
          <mxGeometry x="-156" y="561" width="268" height="23" as="geometry" />
        </mxCell>
        <mxCell id="_W9MsRtc0-dbIf1DSG1E-57" style="edgeStyle=none;curved=1;rounded=0;orthogonalLoop=1;jettySize=auto;html=1;exitX=1;exitY=0.5;exitDx=0;exitDy=0;entryX=0;entryY=0.5;entryDx=0;entryDy=0;fontSize=12;startSize=8;endSize=8;" edge="1" parent="1" source="_W9MsRtc0-dbIf1DSG1E-58" target="_W9MsRtc0-dbIf1DSG1E-59">
          <mxGeometry relative="1" as="geometry" />
        </mxCell>
        <mxCell id="_W9MsRtc0-dbIf1DSG1E-58" value="voyageID" style="rounded=0;whiteSpace=wrap;html=1;" vertex="1" parent="1">
          <mxGeometry x="228" y="602" width="90" height="41" as="geometry" />
        </mxCell>
        <mxCell id="_W9MsRtc0-dbIf1DSG1E-59" value="cargo" style="rounded=0;whiteSpace=wrap;html=1;" vertex="1" parent="1">
          <mxGeometry x="351" y="602" width="90" height="41" as="geometry" />
        </mxCell>
        <mxCell id="_W9MsRtc0-dbIf1DSG1E-60" value="&lt;span style=&quot;font-size: 14px;&quot;&gt;Cargo&lt;span style=&quot;font-weight: normal;&quot;&gt;(&lt;u&gt;voyageID&lt;/u&gt;, cargo)&lt;/span&gt;&lt;/span&gt;" style="text;strokeColor=none;fillColor=none;html=1;align=left;verticalAlign=middle;whiteSpace=wrap;rounded=0;fontSize=16;fontStyle=1" vertex="1" parent="1">
          <mxGeometry x="227" y="561" width="268" height="23" as="geometry" />
        </mxCell>
        <mxCell id="_W9MsRtc0-dbIf1DSG1E-61" value="shipname" style="rounded=0;whiteSpace=wrap;html=1;" vertex="1" parent="1">
          <mxGeometry x="357" y="683" width="90" height="41" as="geometry" />
        </mxCell>
        <mxCell id="_W9MsRtc0-dbIf1DSG1E-64" style="edgeStyle=none;curved=1;rounded=0;orthogonalLoop=1;jettySize=auto;html=1;exitX=1;exitY=0.5;exitDx=0;exitDy=0;entryX=0;entryY=0.5;entryDx=0;entryDy=0;fontSize=12;startSize=8;endSize=8;" edge="1" parent="1" source="_W9MsRtc0-dbIf1DSG1E-62" target="_W9MsRtc0-dbIf1DSG1E-61">
          <mxGeometry relative="1" as="geometry" />
        </mxCell>
        <mxCell id="_W9MsRtc0-dbIf1DSG1E-62" value="voyageID" style="rounded=0;whiteSpace=wrap;html=1;" vertex="1" parent="1">
          <mxGeometry x="228" y="683" width="90" height="41" as="geometry" />
        </mxCell>
        <mxCell id="_W9MsRtc0-dbIf1DSG1E-65" value="&lt;span style=&quot;font-size: 14px;&quot;&gt;Cargo&lt;span style=&quot;font-weight: normal;&quot;&gt;(&lt;u&gt;voyageID&lt;/u&gt;, shipname)&lt;/span&gt;&lt;/span&gt;" style="text;strokeColor=none;fillColor=none;html=1;align=left;verticalAlign=middle;whiteSpace=wrap;rounded=0;fontSize=16;fontStyle=1" vertex="1" parent="1">
          <mxGeometry x="227" y="652" width="268" height="23" as="geometry" />
        </mxCell>
        <mxCell id="_W9MsRtc0-dbIf1DSG1E-66" value="" style="shape=flexArrow;endArrow=classic;html=1;rounded=0;fontSize=12;startSize=8;endSize=8;curved=1;" edge="1" parent="1">
          <mxGeometry width="50" height="50" relative="1" as="geometry">
            <mxPoint x="336" y="739" as="sourcePoint" />
            <mxPoint x="336" y="800" as="targetPoint" />
          </mxGeometry>
        </mxCell>
        <mxCell id="_W9MsRtc0-dbIf1DSG1E-70" style="edgeStyle=none;curved=1;rounded=0;orthogonalLoop=1;jettySize=auto;html=1;exitX=1;exitY=0.5;exitDx=0;exitDy=0;entryX=0;entryY=0.5;entryDx=0;entryDy=0;fontSize=12;startSize=8;endSize=8;" edge="1" parent="1" source="_W9MsRtc0-dbIf1DSG1E-67" target="_W9MsRtc0-dbIf1DSG1E-68">
          <mxGeometry relative="1" as="geometry" />
        </mxCell>
        <mxCell id="_W9MsRtc0-dbIf1DSG1E-71" style="edgeStyle=none;curved=1;rounded=0;orthogonalLoop=1;jettySize=auto;html=1;exitX=1;exitY=0.75;exitDx=0;exitDy=0;entryX=0;entryY=0.5;entryDx=0;entryDy=0;fontSize=12;startSize=8;endSize=8;" edge="1" parent="1" source="_W9MsRtc0-dbIf1DSG1E-67" target="_W9MsRtc0-dbIf1DSG1E-69">
          <mxGeometry relative="1" as="geometry" />
        </mxCell>
        <mxCell id="_W9MsRtc0-dbIf1DSG1E-67" value="voyageID" style="rounded=0;whiteSpace=wrap;html=1;" vertex="1" parent="1">
          <mxGeometry x="234.5" y="804" width="90" height="41" as="geometry" />
        </mxCell>
        <mxCell id="_W9MsRtc0-dbIf1DSG1E-68" value="cargo" style="rounded=0;whiteSpace=wrap;html=1;" vertex="1" parent="1">
          <mxGeometry x="357.5" y="804" width="90" height="41" as="geometry" />
        </mxCell>
        <mxCell id="_W9MsRtc0-dbIf1DSG1E-69" value="shipname" style="rounded=0;whiteSpace=wrap;html=1;" vertex="1" parent="1">
          <mxGeometry x="363.5" y="885" width="90" height="41" as="geometry" />
        </mxCell>
      </root>
    </mxGraphModel>
  </diagram>
  <diagram name="함수종속성다이어그램" id="ymXnNhKh8jK-C-sPtzxp">
    <mxGraphModel dx="1663" dy="3166" grid="1" gridSize="10" guides="1" tooltips="1" connect="1" arrows="1" fold="1" page="1" pageScale="1" pageWidth="827" pageHeight="1169" math="0" shadow="0">
      <root>
        <mxCell id="0" />
        <mxCell id="1" parent="0" />
        <mxCell id="iw_UNrlCYy5P853CFbxJ-1" value="&lt;span style=&quot;font-size: 20px;&quot;&gt;학생번호 -&amp;gt; 학생이름&lt;/span&gt;&lt;div&gt;&lt;span style=&quot;font-size: 20px;&quot;&gt;학생번호 -&amp;gt; 학과&lt;/span&gt;&lt;/div&gt;&lt;div&gt;&lt;span style=&quot;font-size: 20px;&quot;&gt;학생번호 -&amp;gt; 주소&lt;/span&gt;&lt;/div&gt;&lt;div&gt;&lt;span style=&quot;font-size: 20px;&quot;&gt;학과 -&amp;gt; 학과사무실&lt;/span&gt;&lt;/div&gt;&lt;div&gt;&lt;span style=&quot;font-size: 20px;&quot;&gt;강좌이름 -&amp;gt; 강의실&lt;/span&gt;&lt;/div&gt;&lt;div&gt;&lt;span style=&quot;font-size: 20px;&quot;&gt;(학생번호, 강좌이름) -&amp;gt; 성적&lt;/span&gt;&lt;/div&gt;" style="text;html=1;align=left;verticalAlign=middle;resizable=0;points=[];autosize=1;strokeColor=none;fillColor=none;" parent="1" vertex="1">
          <mxGeometry x="40" y="-1233" width="280" height="160" as="geometry" />
        </mxCell>
        <mxCell id="iw_UNrlCYy5P853CFbxJ-2" value="&lt;b&gt;&lt;font style=&quot;font-size: 18px;&quot;&gt;함수종속성 다이어그램&lt;/font&gt;&lt;/b&gt;" style="text;html=1;align=center;verticalAlign=middle;resizable=0;points=[];autosize=1;strokeColor=none;fillColor=none;" parent="1" vertex="1">
          <mxGeometry x="10" y="-1290" width="210" height="40" as="geometry" />
        </mxCell>
        <mxCell id="iw_UNrlCYy5P853CFbxJ-19" value="" style="group" parent="1" vertex="1" connectable="0">
          <mxGeometry x="360" y="-1330" width="410" height="290" as="geometry" />
        </mxCell>
        <mxCell id="iw_UNrlCYy5P853CFbxJ-6" value="" style="edgeStyle=orthogonalEdgeStyle;rounded=0;orthogonalLoop=1;jettySize=auto;html=1;" parent="iw_UNrlCYy5P853CFbxJ-19" source="iw_UNrlCYy5P853CFbxJ-3" target="iw_UNrlCYy5P853CFbxJ-5" edge="1">
          <mxGeometry relative="1" as="geometry" />
        </mxCell>
        <mxCell id="iw_UNrlCYy5P853CFbxJ-8" value="" style="edgeStyle=orthogonalEdgeStyle;rounded=0;orthogonalLoop=1;jettySize=auto;html=1;" parent="iw_UNrlCYy5P853CFbxJ-19" source="iw_UNrlCYy5P853CFbxJ-3" target="iw_UNrlCYy5P853CFbxJ-7" edge="1">
          <mxGeometry relative="1" as="geometry" />
        </mxCell>
        <mxCell id="iw_UNrlCYy5P853CFbxJ-10" value="" style="edgeStyle=orthogonalEdgeStyle;rounded=0;orthogonalLoop=1;jettySize=auto;html=1;" parent="iw_UNrlCYy5P853CFbxJ-19" source="iw_UNrlCYy5P853CFbxJ-3" target="iw_UNrlCYy5P853CFbxJ-9" edge="1">
          <mxGeometry relative="1" as="geometry" />
        </mxCell>
        <mxCell id="iw_UNrlCYy5P853CFbxJ-3" value="학생번호" style="rounded=0;whiteSpace=wrap;html=1;fontSize=14;" parent="iw_UNrlCYy5P853CFbxJ-19" vertex="1">
          <mxGeometry x="20" y="80" width="90" height="40" as="geometry" />
        </mxCell>
        <mxCell id="iw_UNrlCYy5P853CFbxJ-13" value="" style="edgeStyle=orthogonalEdgeStyle;rounded=0;orthogonalLoop=1;jettySize=auto;html=1;" parent="iw_UNrlCYy5P853CFbxJ-19" source="iw_UNrlCYy5P853CFbxJ-4" target="iw_UNrlCYy5P853CFbxJ-12" edge="1">
          <mxGeometry relative="1" as="geometry" />
        </mxCell>
        <mxCell id="iw_UNrlCYy5P853CFbxJ-4" value="강좌이름" style="rounded=0;whiteSpace=wrap;html=1;fontSize=14;" parent="iw_UNrlCYy5P853CFbxJ-19" vertex="1">
          <mxGeometry x="20" y="170" width="90" height="40" as="geometry" />
        </mxCell>
        <mxCell id="iw_UNrlCYy5P853CFbxJ-5" value="학생이름" style="rounded=0;whiteSpace=wrap;html=1;fontSize=14;" parent="iw_UNrlCYy5P853CFbxJ-19" vertex="1">
          <mxGeometry x="100" width="90" height="40" as="geometry" />
        </mxCell>
        <mxCell id="iw_UNrlCYy5P853CFbxJ-15" value="" style="edgeStyle=orthogonalEdgeStyle;rounded=0;orthogonalLoop=1;jettySize=auto;html=1;" parent="iw_UNrlCYy5P853CFbxJ-19" source="iw_UNrlCYy5P853CFbxJ-7" target="iw_UNrlCYy5P853CFbxJ-14" edge="1">
          <mxGeometry relative="1" as="geometry" />
        </mxCell>
        <mxCell id="iw_UNrlCYy5P853CFbxJ-7" value="학과" style="rounded=0;whiteSpace=wrap;html=1;fontSize=14;" parent="iw_UNrlCYy5P853CFbxJ-19" vertex="1">
          <mxGeometry x="180" y="60" width="90" height="40" as="geometry" />
        </mxCell>
        <mxCell id="iw_UNrlCYy5P853CFbxJ-9" value="주소" style="rounded=0;whiteSpace=wrap;html=1;fontSize=14;" parent="iw_UNrlCYy5P853CFbxJ-19" vertex="1">
          <mxGeometry x="180" y="110" width="90" height="40" as="geometry" />
        </mxCell>
        <mxCell id="iw_UNrlCYy5P853CFbxJ-12" value="강의실" style="rounded=0;whiteSpace=wrap;html=1;fontSize=14;" parent="iw_UNrlCYy5P853CFbxJ-19" vertex="1">
          <mxGeometry x="180" y="170" width="90" height="40" as="geometry" />
        </mxCell>
        <mxCell id="iw_UNrlCYy5P853CFbxJ-14" value="학과사무실" style="rounded=0;whiteSpace=wrap;html=1;fontSize=14;" parent="iw_UNrlCYy5P853CFbxJ-19" vertex="1">
          <mxGeometry x="320" y="60" width="90" height="40" as="geometry" />
        </mxCell>
        <mxCell id="iw_UNrlCYy5P853CFbxJ-18" value="" style="edgeStyle=orthogonalEdgeStyle;rounded=0;orthogonalLoop=1;jettySize=auto;html=1;" parent="iw_UNrlCYy5P853CFbxJ-19" source="iw_UNrlCYy5P853CFbxJ-16" target="iw_UNrlCYy5P853CFbxJ-17" edge="1">
          <mxGeometry relative="1" as="geometry" />
        </mxCell>
        <mxCell id="iw_UNrlCYy5P853CFbxJ-16" value="" style="rounded=0;whiteSpace=wrap;html=1;fillColor=none;" parent="iw_UNrlCYy5P853CFbxJ-19" vertex="1">
          <mxGeometry y="70" width="130" height="150" as="geometry" />
        </mxCell>
        <mxCell id="iw_UNrlCYy5P853CFbxJ-17" value="성적" style="whiteSpace=wrap;html=1;fillColor=none;rounded=0;fontSize=15;" parent="iw_UNrlCYy5P853CFbxJ-19" vertex="1">
          <mxGeometry x="5" y="250" width="105" height="40" as="geometry" />
        </mxCell>
        <mxCell id="iw_UNrlCYy5P853CFbxJ-22" value="&lt;b&gt;&lt;font style=&quot;font-size: 18px;&quot;&gt;부분 릴레이션 분해&lt;/font&gt;&lt;/b&gt;" style="text;html=1;align=center;verticalAlign=middle;resizable=0;points=[];autosize=1;strokeColor=none;fillColor=none;" parent="1" vertex="1">
          <mxGeometry x="40" y="-1020" width="180" height="40" as="geometry" />
        </mxCell>
        <mxCell id="iw_UNrlCYy5P853CFbxJ-39" value="학생수강성적(학생번호, 학생이름, 학과, 주소, 강좌이름, 학과사무실)&lt;div&gt;&lt;br&gt;&lt;/div&gt;&lt;div&gt;강의실(강좌이름, 강의실)&lt;/div&gt;" style="text;html=1;align=left;verticalAlign=middle;resizable=0;points=[];autosize=1;strokeColor=none;fillColor=none;fontSize=17;" parent="1" vertex="1">
          <mxGeometry x="-20" y="-942" width="540" height="70" as="geometry" />
        </mxCell>
        <mxCell id="iw_UNrlCYy5P853CFbxJ-24" value="" style="edgeStyle=orthogonalEdgeStyle;rounded=0;orthogonalLoop=1;jettySize=auto;html=1;" parent="1" source="iw_UNrlCYy5P853CFbxJ-27" target="iw_UNrlCYy5P853CFbxJ-30" edge="1">
          <mxGeometry relative="1" as="geometry" />
        </mxCell>
        <mxCell id="iw_UNrlCYy5P853CFbxJ-25" value="" style="edgeStyle=orthogonalEdgeStyle;rounded=0;orthogonalLoop=1;jettySize=auto;html=1;" parent="1" source="iw_UNrlCYy5P853CFbxJ-27" target="iw_UNrlCYy5P853CFbxJ-32" edge="1">
          <mxGeometry relative="1" as="geometry" />
        </mxCell>
        <mxCell id="iw_UNrlCYy5P853CFbxJ-26" value="" style="edgeStyle=orthogonalEdgeStyle;rounded=0;orthogonalLoop=1;jettySize=auto;html=1;" parent="1" source="iw_UNrlCYy5P853CFbxJ-27" target="iw_UNrlCYy5P853CFbxJ-33" edge="1">
          <mxGeometry relative="1" as="geometry" />
        </mxCell>
        <mxCell id="iw_UNrlCYy5P853CFbxJ-27" value="학생번호" style="rounded=0;whiteSpace=wrap;html=1;fontSize=14;" parent="1" vertex="1">
          <mxGeometry x="510" y="-920" width="90" height="40" as="geometry" />
        </mxCell>
        <mxCell id="iw_UNrlCYy5P853CFbxJ-29" value="강좌이름" style="rounded=0;whiteSpace=wrap;html=1;fontSize=14;" parent="1" vertex="1">
          <mxGeometry x="510" y="-830" width="90" height="40" as="geometry" />
        </mxCell>
        <mxCell id="iw_UNrlCYy5P853CFbxJ-30" value="학생이름" style="rounded=0;whiteSpace=wrap;html=1;fontSize=14;" parent="1" vertex="1">
          <mxGeometry x="590" y="-1000" width="90" height="40" as="geometry" />
        </mxCell>
        <mxCell id="iw_UNrlCYy5P853CFbxJ-31" value="" style="edgeStyle=orthogonalEdgeStyle;rounded=0;orthogonalLoop=1;jettySize=auto;html=1;" parent="1" source="iw_UNrlCYy5P853CFbxJ-32" target="iw_UNrlCYy5P853CFbxJ-35" edge="1">
          <mxGeometry relative="1" as="geometry" />
        </mxCell>
        <mxCell id="iw_UNrlCYy5P853CFbxJ-32" value="학과" style="rounded=0;whiteSpace=wrap;html=1;fontSize=14;" parent="1" vertex="1">
          <mxGeometry x="670" y="-940" width="90" height="40" as="geometry" />
        </mxCell>
        <mxCell id="iw_UNrlCYy5P853CFbxJ-33" value="주소" style="rounded=0;whiteSpace=wrap;html=1;fontSize=14;" parent="1" vertex="1">
          <mxGeometry x="670" y="-890" width="90" height="40" as="geometry" />
        </mxCell>
        <mxCell id="iw_UNrlCYy5P853CFbxJ-35" value="학과사무실" style="rounded=0;whiteSpace=wrap;html=1;fontSize=14;" parent="1" vertex="1">
          <mxGeometry x="810" y="-940" width="90" height="40" as="geometry" />
        </mxCell>
        <mxCell id="iw_UNrlCYy5P853CFbxJ-36" value="" style="edgeStyle=orthogonalEdgeStyle;rounded=0;orthogonalLoop=1;jettySize=auto;html=1;" parent="1" source="iw_UNrlCYy5P853CFbxJ-37" target="iw_UNrlCYy5P853CFbxJ-38" edge="1">
          <mxGeometry relative="1" as="geometry" />
        </mxCell>
        <mxCell id="iw_UNrlCYy5P853CFbxJ-37" value="" style="rounded=0;whiteSpace=wrap;html=1;fillColor=none;" parent="1" vertex="1">
          <mxGeometry x="490" y="-930" width="130" height="150" as="geometry" />
        </mxCell>
        <mxCell id="iw_UNrlCYy5P853CFbxJ-38" value="성적" style="whiteSpace=wrap;html=1;fillColor=none;rounded=0;fontSize=15;" parent="1" vertex="1">
          <mxGeometry x="495" y="-750" width="105" height="40" as="geometry" />
        </mxCell>
        <mxCell id="iw_UNrlCYy5P853CFbxJ-41" value="" style="edgeStyle=orthogonalEdgeStyle;rounded=0;orthogonalLoop=1;jettySize=auto;html=1;" parent="1" target="iw_UNrlCYy5P853CFbxJ-42" edge="1">
          <mxGeometry relative="1" as="geometry">
            <mxPoint x="780" y="-730" as="sourcePoint" />
          </mxGeometry>
        </mxCell>
        <mxCell id="iw_UNrlCYy5P853CFbxJ-42" value="강의실" style="rounded=0;whiteSpace=wrap;html=1;fontSize=14;" parent="1" vertex="1">
          <mxGeometry x="850" y="-750" width="90" height="40" as="geometry" />
        </mxCell>
        <mxCell id="iw_UNrlCYy5P853CFbxJ-43" value="강좌이름" style="rounded=0;whiteSpace=wrap;html=1;fontSize=14;" parent="1" vertex="1">
          <mxGeometry x="700" y="-750" width="90" height="40" as="geometry" />
        </mxCell>
        <mxCell id="iw_UNrlCYy5P853CFbxJ-44" value="&lt;b style=&quot;font-size: 18px;&quot;&gt;강의실&lt;/b&gt;" style="text;html=1;align=center;verticalAlign=middle;resizable=0;points=[];autosize=1;strokeColor=none;fillColor=none;fontSize=18;" parent="1" vertex="1">
          <mxGeometry x="705" y="-810" width="80" height="40" as="geometry" />
        </mxCell>
        <mxCell id="iw_UNrlCYy5P853CFbxJ-45" value="학생수강성적(학생번호, 학생이름, 학과, 주소, 강좌이름)&lt;div&gt;&lt;br&gt;&lt;/div&gt;&lt;div&gt;학과(학과, 학과사무실)&lt;/div&gt;&lt;div&gt;&lt;br&gt;&lt;/div&gt;&lt;div&gt;강의실(강좌이름, 강의실)&lt;/div&gt;" style="text;html=1;align=left;verticalAlign=middle;resizable=0;points=[];autosize=1;strokeColor=none;fillColor=none;fontSize=17;" parent="1" vertex="1">
          <mxGeometry x="-10" y="-644" width="450" height="120" as="geometry" />
        </mxCell>
        <mxCell id="iw_UNrlCYy5P853CFbxJ-46" value="&lt;b style=&quot;font-size: 18px;&quot;&gt;학생수강성적&lt;/b&gt;" style="text;html=1;align=center;verticalAlign=middle;resizable=0;points=[];autosize=1;strokeColor=none;fillColor=none;fontSize=18;" parent="1" vertex="1">
          <mxGeometry x="490" y="-1050" width="130" height="40" as="geometry" />
        </mxCell>
        <mxCell id="iw_UNrlCYy5P853CFbxJ-47" value="" style="edgeStyle=orthogonalEdgeStyle;rounded=0;orthogonalLoop=1;jettySize=auto;html=1;" parent="1" source="iw_UNrlCYy5P853CFbxJ-50" target="iw_UNrlCYy5P853CFbxJ-52" edge="1">
          <mxGeometry relative="1" as="geometry" />
        </mxCell>
        <mxCell id="iw_UNrlCYy5P853CFbxJ-48" value="" style="edgeStyle=orthogonalEdgeStyle;rounded=0;orthogonalLoop=1;jettySize=auto;html=1;" parent="1" source="iw_UNrlCYy5P853CFbxJ-50" target="iw_UNrlCYy5P853CFbxJ-54" edge="1">
          <mxGeometry relative="1" as="geometry" />
        </mxCell>
        <mxCell id="iw_UNrlCYy5P853CFbxJ-49" value="" style="edgeStyle=orthogonalEdgeStyle;rounded=0;orthogonalLoop=1;jettySize=auto;html=1;" parent="1" source="iw_UNrlCYy5P853CFbxJ-50" target="iw_UNrlCYy5P853CFbxJ-55" edge="1">
          <mxGeometry relative="1" as="geometry" />
        </mxCell>
        <mxCell id="iw_UNrlCYy5P853CFbxJ-50" value="학생번호" style="rounded=0;whiteSpace=wrap;html=1;fontSize=14;" parent="1" vertex="1">
          <mxGeometry x="500" y="-540" width="90" height="40" as="geometry" />
        </mxCell>
        <mxCell id="iw_UNrlCYy5P853CFbxJ-51" value="강좌이름" style="rounded=0;whiteSpace=wrap;html=1;fontSize=14;" parent="1" vertex="1">
          <mxGeometry x="500" y="-450" width="90" height="40" as="geometry" />
        </mxCell>
        <mxCell id="iw_UNrlCYy5P853CFbxJ-52" value="학생이름" style="rounded=0;whiteSpace=wrap;html=1;fontSize=14;" parent="1" vertex="1">
          <mxGeometry x="580" y="-620" width="90" height="40" as="geometry" />
        </mxCell>
        <mxCell id="iw_UNrlCYy5P853CFbxJ-54" value="학과" style="rounded=0;whiteSpace=wrap;html=1;fontSize=14;" parent="1" vertex="1">
          <mxGeometry x="660" y="-560" width="90" height="40" as="geometry" />
        </mxCell>
        <mxCell id="iw_UNrlCYy5P853CFbxJ-55" value="주소" style="rounded=0;whiteSpace=wrap;html=1;fontSize=14;" parent="1" vertex="1">
          <mxGeometry x="660" y="-510" width="90" height="40" as="geometry" />
        </mxCell>
        <mxCell id="iw_UNrlCYy5P853CFbxJ-57" value="" style="edgeStyle=orthogonalEdgeStyle;rounded=0;orthogonalLoop=1;jettySize=auto;html=1;" parent="1" source="iw_UNrlCYy5P853CFbxJ-58" target="iw_UNrlCYy5P853CFbxJ-59" edge="1">
          <mxGeometry relative="1" as="geometry" />
        </mxCell>
        <mxCell id="iw_UNrlCYy5P853CFbxJ-58" value="" style="rounded=0;whiteSpace=wrap;html=1;fillColor=none;" parent="1" vertex="1">
          <mxGeometry x="480" y="-550" width="130" height="150" as="geometry" />
        </mxCell>
        <mxCell id="iw_UNrlCYy5P853CFbxJ-59" value="성적" style="whiteSpace=wrap;html=1;fillColor=none;rounded=0;fontSize=15;" parent="1" vertex="1">
          <mxGeometry x="485" y="-370" width="105" height="40" as="geometry" />
        </mxCell>
        <mxCell id="iw_UNrlCYy5P853CFbxJ-60" value="" style="edgeStyle=orthogonalEdgeStyle;rounded=0;orthogonalLoop=1;jettySize=auto;html=1;" parent="1" target="iw_UNrlCYy5P853CFbxJ-61" edge="1">
          <mxGeometry relative="1" as="geometry">
            <mxPoint x="740" y="-380" as="sourcePoint" />
          </mxGeometry>
        </mxCell>
        <mxCell id="iw_UNrlCYy5P853CFbxJ-61" value="강의실" style="rounded=0;whiteSpace=wrap;html=1;fontSize=14;" parent="1" vertex="1">
          <mxGeometry x="810" y="-400" width="90" height="40" as="geometry" />
        </mxCell>
        <mxCell id="iw_UNrlCYy5P853CFbxJ-62" value="강좌이름" style="rounded=0;whiteSpace=wrap;html=1;fontSize=14;" parent="1" vertex="1">
          <mxGeometry x="660" y="-400" width="90" height="40" as="geometry" />
        </mxCell>
        <mxCell id="iw_UNrlCYy5P853CFbxJ-63" value="&lt;b style=&quot;font-size: 18px;&quot;&gt;강의실&lt;/b&gt;" style="text;html=1;align=center;verticalAlign=middle;resizable=0;points=[];autosize=1;strokeColor=none;fillColor=none;fontSize=18;" parent="1" vertex="1">
          <mxGeometry x="665" y="-460" width="80" height="40" as="geometry" />
        </mxCell>
        <mxCell id="iw_UNrlCYy5P853CFbxJ-64" value="&lt;b style=&quot;font-size: 18px;&quot;&gt;학생수강성적&lt;/b&gt;" style="text;html=1;align=center;verticalAlign=middle;resizable=0;points=[];autosize=1;strokeColor=none;fillColor=none;fontSize=18;" parent="1" vertex="1">
          <mxGeometry x="480" y="-670" width="130" height="40" as="geometry" />
        </mxCell>
        <mxCell id="iw_UNrlCYy5P853CFbxJ-65" value="" style="edgeStyle=orthogonalEdgeStyle;rounded=0;orthogonalLoop=1;jettySize=auto;html=1;" parent="1" source="iw_UNrlCYy5P853CFbxJ-66" target="iw_UNrlCYy5P853CFbxJ-67" edge="1">
          <mxGeometry relative="1" as="geometry" />
        </mxCell>
        <mxCell id="iw_UNrlCYy5P853CFbxJ-66" value="학과" style="rounded=0;whiteSpace=wrap;html=1;fontSize=14;" parent="1" vertex="1">
          <mxGeometry x="660" y="-310" width="90" height="40" as="geometry" />
        </mxCell>
        <mxCell id="iw_UNrlCYy5P853CFbxJ-67" value="학과사무실" style="rounded=0;whiteSpace=wrap;html=1;fontSize=14;" parent="1" vertex="1">
          <mxGeometry x="800" y="-310" width="90" height="40" as="geometry" />
        </mxCell>
        <mxCell id="iw_UNrlCYy5P853CFbxJ-68" value="&lt;b style=&quot;font-size: 18px;&quot;&gt;학과&lt;/b&gt;" style="text;html=1;align=center;verticalAlign=middle;resizable=0;points=[];autosize=1;strokeColor=none;fillColor=none;fontSize=18;" parent="1" vertex="1">
          <mxGeometry x="675" y="-350" width="60" height="40" as="geometry" />
        </mxCell>
        <mxCell id="iw_UNrlCYy5P853CFbxJ-69" value="학생(학생번호, 학생이름, 학과, 주소)&lt;div&gt;&lt;br&gt;&lt;/div&gt;&lt;div&gt;학생성적(&lt;span style=&quot;background-color: initial;&quot;&gt;학생이름, 강좌이름, 성적)&lt;/span&gt;&lt;/div&gt;&lt;div&gt;&lt;span style=&quot;background-color: initial;&quot;&gt;&lt;br&gt;&lt;/span&gt;&lt;/div&gt;&lt;div&gt;학과(학과, 학과사무실)&lt;/div&gt;&lt;div&gt;&lt;br&gt;&lt;/div&gt;&lt;div&gt;강의실(강좌이름, 강의실)&lt;/div&gt;" style="text;html=1;align=left;verticalAlign=middle;resizable=0;points=[];autosize=1;strokeColor=none;fillColor=none;fontSize=17;" parent="1" vertex="1">
          <mxGeometry x="-20" y="-270" width="300" height="160" as="geometry" />
        </mxCell>
        <mxCell id="iw_UNrlCYy5P853CFbxJ-70" value="" style="edgeStyle=orthogonalEdgeStyle;rounded=0;orthogonalLoop=1;jettySize=auto;html=1;" parent="1" source="iw_UNrlCYy5P853CFbxJ-73" target="iw_UNrlCYy5P853CFbxJ-75" edge="1">
          <mxGeometry relative="1" as="geometry" />
        </mxCell>
        <mxCell id="iw_UNrlCYy5P853CFbxJ-71" value="" style="edgeStyle=orthogonalEdgeStyle;rounded=0;orthogonalLoop=1;jettySize=auto;html=1;" parent="1" source="iw_UNrlCYy5P853CFbxJ-73" target="iw_UNrlCYy5P853CFbxJ-76" edge="1">
          <mxGeometry relative="1" as="geometry" />
        </mxCell>
        <mxCell id="iw_UNrlCYy5P853CFbxJ-72" value="" style="edgeStyle=orthogonalEdgeStyle;rounded=0;orthogonalLoop=1;jettySize=auto;html=1;" parent="1" source="iw_UNrlCYy5P853CFbxJ-73" target="iw_UNrlCYy5P853CFbxJ-77" edge="1">
          <mxGeometry relative="1" as="geometry" />
        </mxCell>
        <mxCell id="iw_UNrlCYy5P853CFbxJ-73" value="학생번호" style="rounded=0;whiteSpace=wrap;html=1;fontSize=14;" parent="1" vertex="1">
          <mxGeometry x="342.5" y="-70" width="90" height="40" as="geometry" />
        </mxCell>
        <mxCell id="iw_UNrlCYy5P853CFbxJ-75" value="학생이름" style="rounded=0;whiteSpace=wrap;html=1;fontSize=14;" parent="1" vertex="1">
          <mxGeometry x="410" y="-160" width="90" height="40" as="geometry" />
        </mxCell>
        <mxCell id="iw_UNrlCYy5P853CFbxJ-76" value="학과" style="rounded=0;whiteSpace=wrap;html=1;fontSize=14;" parent="1" vertex="1">
          <mxGeometry x="510" y="-100" width="90" height="40" as="geometry" />
        </mxCell>
        <mxCell id="iw_UNrlCYy5P853CFbxJ-77" value="주소" style="rounded=0;whiteSpace=wrap;html=1;fontSize=14;" parent="1" vertex="1">
          <mxGeometry x="510" y="-50" width="90" height="40" as="geometry" />
        </mxCell>
        <mxCell id="iw_UNrlCYy5P853CFbxJ-78" value="" style="edgeStyle=orthogonalEdgeStyle;rounded=0;orthogonalLoop=1;jettySize=auto;html=1;" parent="1" source="iw_UNrlCYy5P853CFbxJ-79" target="iw_UNrlCYy5P853CFbxJ-80" edge="1">
          <mxGeometry relative="1" as="geometry" />
        </mxCell>
        <mxCell id="iw_UNrlCYy5P853CFbxJ-79" value="" style="rounded=0;whiteSpace=wrap;html=1;fillColor=none;" parent="1" vertex="1">
          <mxGeometry x="285" y="60" width="130" height="150" as="geometry" />
        </mxCell>
        <mxCell id="iw_UNrlCYy5P853CFbxJ-80" value="성적" style="whiteSpace=wrap;html=1;fillColor=none;rounded=0;fontSize=15;" parent="1" vertex="1">
          <mxGeometry x="475" y="115" width="105" height="40" as="geometry" />
        </mxCell>
        <mxCell id="iw_UNrlCYy5P853CFbxJ-81" value="" style="edgeStyle=orthogonalEdgeStyle;rounded=0;orthogonalLoop=1;jettySize=auto;html=1;" parent="1" target="iw_UNrlCYy5P853CFbxJ-82" edge="1">
          <mxGeometry relative="1" as="geometry">
            <mxPoint x="725" y="-40" as="sourcePoint" />
          </mxGeometry>
        </mxCell>
        <mxCell id="iw_UNrlCYy5P853CFbxJ-82" value="강의실" style="rounded=0;whiteSpace=wrap;html=1;fontSize=14;" parent="1" vertex="1">
          <mxGeometry x="795" y="-60" width="90" height="40" as="geometry" />
        </mxCell>
        <mxCell id="iw_UNrlCYy5P853CFbxJ-83" value="강좌이름" style="rounded=0;whiteSpace=wrap;html=1;fontSize=14;" parent="1" vertex="1">
          <mxGeometry x="645" y="-60" width="90" height="40" as="geometry" />
        </mxCell>
        <mxCell id="iw_UNrlCYy5P853CFbxJ-84" value="&lt;b style=&quot;font-size: 18px;&quot;&gt;강의실&lt;/b&gt;" style="text;html=1;align=center;verticalAlign=middle;resizable=0;points=[];autosize=1;strokeColor=none;fillColor=none;fontSize=18;" parent="1" vertex="1">
          <mxGeometry x="650" y="-120" width="80" height="40" as="geometry" />
        </mxCell>
        <mxCell id="iw_UNrlCYy5P853CFbxJ-85" value="&lt;b style=&quot;font-size: 18px;&quot;&gt;학생&lt;/b&gt;" style="text;html=1;align=center;verticalAlign=middle;resizable=0;points=[];autosize=1;strokeColor=none;fillColor=none;fontSize=18;" parent="1" vertex="1">
          <mxGeometry x="387.5" y="-200" width="60" height="40" as="geometry" />
        </mxCell>
        <mxCell id="iw_UNrlCYy5P853CFbxJ-86" value="" style="edgeStyle=orthogonalEdgeStyle;rounded=0;orthogonalLoop=1;jettySize=auto;html=1;" parent="1" source="iw_UNrlCYy5P853CFbxJ-87" target="iw_UNrlCYy5P853CFbxJ-88" edge="1">
          <mxGeometry relative="1" as="geometry" />
        </mxCell>
        <mxCell id="iw_UNrlCYy5P853CFbxJ-87" value="학과" style="rounded=0;whiteSpace=wrap;html=1;fontSize=14;" parent="1" vertex="1">
          <mxGeometry x="645" y="100" width="90" height="40" as="geometry" />
        </mxCell>
        <mxCell id="iw_UNrlCYy5P853CFbxJ-88" value="학과사무실" style="rounded=0;whiteSpace=wrap;html=1;fontSize=14;" parent="1" vertex="1">
          <mxGeometry x="785" y="100" width="90" height="40" as="geometry" />
        </mxCell>
        <mxCell id="iw_UNrlCYy5P853CFbxJ-89" value="&lt;b style=&quot;font-size: 18px;&quot;&gt;학과&lt;/b&gt;" style="text;html=1;align=center;verticalAlign=middle;resizable=0;points=[];autosize=1;strokeColor=none;fillColor=none;fontSize=18;" parent="1" vertex="1">
          <mxGeometry x="660" y="60" width="60" height="40" as="geometry" />
        </mxCell>
        <mxCell id="iw_UNrlCYy5P853CFbxJ-90" value="강좌이름" style="rounded=0;whiteSpace=wrap;html=1;fontSize=14;" parent="1" vertex="1">
          <mxGeometry x="305" y="150" width="90" height="40" as="geometry" />
        </mxCell>
        <mxCell id="iw_UNrlCYy5P853CFbxJ-91" value="학생번호" style="rounded=0;whiteSpace=wrap;html=1;fontSize=14;" parent="1" vertex="1">
          <mxGeometry x="305" y="80" width="90" height="40" as="geometry" />
        </mxCell>
        <mxCell id="iw_UNrlCYy5P853CFbxJ-92" value="&lt;b&gt;학생성적&lt;/b&gt;" style="text;html=1;align=center;verticalAlign=middle;resizable=0;points=[];autosize=1;strokeColor=none;fillColor=none;fontSize=18;" parent="1" vertex="1">
          <mxGeometry x="299" width="100" height="40" as="geometry" />
        </mxCell>
      </root>
    </mxGraphModel>
  </diagram>
  <diagram name="부동산 데이터베이스" id="33FuqGjjkumv0PjW8i2L">
    <mxGraphModel dx="1663" dy="1997" grid="1" gridSize="10" guides="1" tooltips="1" connect="1" arrows="1" fold="1" page="1" pageScale="1" pageWidth="827" pageHeight="1169" math="0" shadow="0">
      <root>
        <mxCell id="0" />
        <mxCell id="1" parent="0" />
        <mxCell id="CB3mXq6G2gTffusGemUr-1" value="&lt;div style=&quot;font-size: 17px;&quot;&gt;다음은 부동산 정보를 저장하는 데이터베이스이다.&lt;/div&gt;&lt;div style=&quot;font-size: 17px;&quot;&gt;아래와 같은 하나의 릴레이션에 정보가 저장되어있고,&lt;/div&gt;&lt;div style=&quot;font-size: 17px;&quot;&gt;&lt;br style=&quot;font-size: 17px;&quot;&gt;&lt;/div&gt;&lt;div style=&quot;font-size: 17px;&quot;&gt;```&lt;/div&gt;&lt;div style=&quot;font-size: 17px;&quot;&gt;부동산(필지번호, 주소, 공시지가, 소유자이름, 주민등록번호, 전화번호)&lt;/div&gt;&lt;div style=&quot;font-size: 17px;&quot;&gt;```&lt;/div&gt;&lt;div style=&quot;font-size: 17px;&quot;&gt;다음과 같은 함수 종속성을 가진다.&amp;nbsp;&lt;/div&gt;&lt;div style=&quot;font-size: 17px;&quot;&gt;&lt;br style=&quot;font-size: 17px;&quot;&gt;&lt;/div&gt;&lt;div style=&quot;font-size: 17px;&quot;&gt;```&lt;/div&gt;&lt;div style=&quot;font-size: 17px;&quot;&gt;함수 종속성&lt;/div&gt;&lt;div style=&quot;font-size: 17px;&quot;&gt;&lt;span style=&quot;white-space-collapse: collapse; font-size: 17px;&quot;&gt;&lt;span style=&quot;white-space-collapse: preserve; font-size: 17px;&quot;&gt;&#x9;&lt;/span&gt;- 필지번호 -&amp;gt; 주소, 공시지가 : 땅에 대한 고유 번호이며 필지에 대하여 주소와 공시가격이 주어진다.&lt;/span&gt;&lt;/div&gt;&lt;div style=&quot;font-size: 17px;&quot;&gt;&lt;span style=&quot;white-space-collapse: collapse; font-size: 17px;&quot;&gt;&lt;span style=&quot;white-space-collapse: preserve; font-size: 17px;&quot;&gt;&#x9;&lt;/span&gt;- 소유자이름 -&amp;gt; 전화번호 : 소유자는 하나의 전화번호를 갖는다&lt;/span&gt;&lt;/div&gt;&lt;div style=&quot;font-size: 17px;&quot;&gt;&lt;span style=&quot;white-space-collapse: collapse; font-size: 17px;&quot;&gt;&lt;span style=&quot;white-space-collapse: preserve; font-size: 17px;&quot;&gt;&#x9;&lt;/span&gt;- 주민등록번호 -&amp;gt; 소유자이름 : 사람마다 고유한 주민등록번호가 있다.&lt;/span&gt;&lt;/div&gt;&lt;div style=&quot;font-size: 17px;&quot;&gt;```&lt;/div&gt;&lt;div style=&quot;font-size: 17px;&quot;&gt;&lt;br style=&quot;font-size: 17px;&quot;&gt;&lt;/div&gt;&lt;div style=&quot;font-size: 17px;&quot;&gt;1. 함수 종속성 다이어그램을 그리시오.&lt;/div&gt;&lt;div style=&quot;font-size: 17px;&quot;&gt;2. 테이블을 분해하시오.&lt;/div&gt;" style="text;html=1;align=left;verticalAlign=middle;resizable=0;points=[];autosize=1;strokeColor=none;fillColor=none;fontStyle=1;fontSize=17;" parent="1" vertex="1">
          <mxGeometry x="-160" y="-280" width="810" height="360" as="geometry" />
        </mxCell>
        <mxCell id="ZYwrATI4QdThfDaMQRqj-4" value="" style="edgeStyle=elbowEdgeStyle;rounded=0;orthogonalLoop=1;jettySize=auto;html=1;" parent="1" source="ZYwrATI4QdThfDaMQRqj-1" target="ZYwrATI4QdThfDaMQRqj-3" edge="1">
          <mxGeometry relative="1" as="geometry" />
        </mxCell>
        <mxCell id="ZYwrATI4QdThfDaMQRqj-8" value="" style="edgeStyle=orthogonalEdgeStyle;rounded=0;orthogonalLoop=1;jettySize=auto;html=1;" parent="1" source="ZYwrATI4QdThfDaMQRqj-1" target="ZYwrATI4QdThfDaMQRqj-7" edge="1">
          <mxGeometry relative="1" as="geometry" />
        </mxCell>
        <mxCell id="ZYwrATI4QdThfDaMQRqj-1" value="필지번호" style="rounded=0;whiteSpace=wrap;html=1;fontSize=16;" parent="1" vertex="1">
          <mxGeometry x="20" y="120" width="120" height="60" as="geometry" />
        </mxCell>
        <mxCell id="ZYwrATI4QdThfDaMQRqj-10" value="" style="edgeStyle=orthogonalEdgeStyle;rounded=0;orthogonalLoop=1;jettySize=auto;html=1;" parent="1" source="ZYwrATI4QdThfDaMQRqj-2" target="ZYwrATI4QdThfDaMQRqj-9" edge="1">
          <mxGeometry relative="1" as="geometry" />
        </mxCell>
        <mxCell id="ZYwrATI4QdThfDaMQRqj-2" value="주민등록번호" style="rounded=0;whiteSpace=wrap;html=1;fontSize=16;" parent="1" vertex="1">
          <mxGeometry x="20" y="220" width="120" height="60" as="geometry" />
        </mxCell>
        <mxCell id="ZYwrATI4QdThfDaMQRqj-3" value="주소" style="rounded=0;whiteSpace=wrap;html=1;fontSize=16;" parent="1" vertex="1">
          <mxGeometry x="220" y="40" width="120" height="60" as="geometry" />
        </mxCell>
        <mxCell id="ZYwrATI4QdThfDaMQRqj-7" value="공시지가" style="rounded=0;whiteSpace=wrap;html=1;fontSize=16;" parent="1" vertex="1">
          <mxGeometry x="220" y="120" width="120" height="60" as="geometry" />
        </mxCell>
        <mxCell id="ZYwrATI4QdThfDaMQRqj-12" value="" style="edgeStyle=orthogonalEdgeStyle;rounded=0;orthogonalLoop=1;jettySize=auto;html=1;startArrow=classic;startFill=1;" parent="1" source="ZYwrATI4QdThfDaMQRqj-9" target="ZYwrATI4QdThfDaMQRqj-11" edge="1">
          <mxGeometry relative="1" as="geometry" />
        </mxCell>
        <mxCell id="ZYwrATI4QdThfDaMQRqj-9" value="소유자 이름" style="rounded=0;whiteSpace=wrap;html=1;fontSize=16;" parent="1" vertex="1">
          <mxGeometry x="220" y="220" width="120" height="60" as="geometry" />
        </mxCell>
        <mxCell id="ZYwrATI4QdThfDaMQRqj-11" value="전화번호" style="rounded=0;whiteSpace=wrap;html=1;fontSize=16;" parent="1" vertex="1">
          <mxGeometry x="420" y="220" width="120" height="60" as="geometry" />
        </mxCell>
        <mxCell id="ZYwrATI4QdThfDaMQRqj-13" value="&lt;b&gt;소유자&lt;/b&gt; (&lt;u&gt;주민등록번호(PK)&lt;/u&gt;, 소유자 이름, 전화번호)&lt;div&gt;&lt;b&gt;부동산&lt;/b&gt; (&lt;u&gt;필지번호(PK)&lt;/u&gt;, 주소, 공시지가, 주민등록번호(FK))&lt;/div&gt;" style="text;html=1;align=left;verticalAlign=middle;resizable=0;points=[];autosize=1;strokeColor=none;fillColor=none;fontSize=17;" parent="1" vertex="1">
          <mxGeometry x="20" y="340" width="460" height="50" as="geometry" />
        </mxCell>
        <mxCell id="ZYwrATI4QdThfDaMQRqj-14" value="필지가 공동소유인 경우" style="text;html=1;align=center;verticalAlign=middle;resizable=0;points=[];autosize=1;strokeColor=none;fillColor=none;fontStyle=1;fontSize=17;" parent="1" vertex="1">
          <mxGeometry x="-160" y="420" width="200" height="30" as="geometry" />
        </mxCell>
        <mxCell id="ZYwrATI4QdThfDaMQRqj-15" value="" style="edgeStyle=elbowEdgeStyle;rounded=0;orthogonalLoop=1;jettySize=auto;html=1;" parent="1" source="ZYwrATI4QdThfDaMQRqj-17" target="ZYwrATI4QdThfDaMQRqj-20" edge="1">
          <mxGeometry relative="1" as="geometry" />
        </mxCell>
        <mxCell id="ZYwrATI4QdThfDaMQRqj-16" value="" style="edgeStyle=orthogonalEdgeStyle;rounded=0;orthogonalLoop=1;jettySize=auto;html=1;" parent="1" source="ZYwrATI4QdThfDaMQRqj-17" target="ZYwrATI4QdThfDaMQRqj-21" edge="1">
          <mxGeometry relative="1" as="geometry" />
        </mxCell>
        <mxCell id="ZYwrATI4QdThfDaMQRqj-17" value="필지번호" style="rounded=0;whiteSpace=wrap;html=1;fontSize=16;" parent="1" vertex="1">
          <mxGeometry x="10" y="510" width="120" height="60" as="geometry" />
        </mxCell>
        <mxCell id="ZYwrATI4QdThfDaMQRqj-18" value="" style="edgeStyle=orthogonalEdgeStyle;rounded=0;orthogonalLoop=1;jettySize=auto;html=1;" parent="1" source="ZYwrATI4QdThfDaMQRqj-19" target="ZYwrATI4QdThfDaMQRqj-23" edge="1">
          <mxGeometry relative="1" as="geometry" />
        </mxCell>
        <mxCell id="ZYwrATI4QdThfDaMQRqj-19" value="주민등록번호" style="rounded=0;whiteSpace=wrap;html=1;fontSize=16;" parent="1" vertex="1">
          <mxGeometry x="10" y="610" width="120" height="60" as="geometry" />
        </mxCell>
        <mxCell id="ZYwrATI4QdThfDaMQRqj-20" value="주소" style="rounded=0;whiteSpace=wrap;html=1;fontSize=16;" parent="1" vertex="1">
          <mxGeometry x="210" y="430" width="120" height="60" as="geometry" />
        </mxCell>
        <mxCell id="ZYwrATI4QdThfDaMQRqj-21" value="공시지가" style="rounded=0;whiteSpace=wrap;html=1;fontSize=16;" parent="1" vertex="1">
          <mxGeometry x="210" y="510" width="120" height="60" as="geometry" />
        </mxCell>
        <mxCell id="ZYwrATI4QdThfDaMQRqj-22" value="" style="edgeStyle=orthogonalEdgeStyle;rounded=0;orthogonalLoop=1;jettySize=auto;html=1;startArrow=classic;startFill=1;" parent="1" source="ZYwrATI4QdThfDaMQRqj-23" target="ZYwrATI4QdThfDaMQRqj-24" edge="1">
          <mxGeometry relative="1" as="geometry" />
        </mxCell>
        <mxCell id="ZYwrATI4QdThfDaMQRqj-23" value="소유자 이름" style="rounded=0;whiteSpace=wrap;html=1;fontSize=16;" parent="1" vertex="1">
          <mxGeometry x="210" y="610" width="120" height="60" as="geometry" />
        </mxCell>
        <mxCell id="ZYwrATI4QdThfDaMQRqj-24" value="전화번호" style="rounded=0;whiteSpace=wrap;html=1;fontSize=16;" parent="1" vertex="1">
          <mxGeometry x="410" y="610" width="120" height="60" as="geometry" />
        </mxCell>
        <mxCell id="ZYwrATI4QdThfDaMQRqj-26" value="" style="rounded=0;whiteSpace=wrap;html=1;fillColor=none;" parent="1" vertex="1">
          <mxGeometry x="-10" y="480" width="160" height="220" as="geometry" />
        </mxCell>
        <mxCell id="ZYwrATI4QdThfDaMQRqj-27" value="&lt;div&gt;&lt;b&gt;부동산&lt;/b&gt;&amp;nbsp;(&lt;u&gt;필지번호(PK)&lt;/u&gt;, 주소, 공시지가)&lt;b&gt;&lt;br&gt;&lt;/b&gt;&lt;/div&gt;&lt;div&gt;&lt;b&gt;부동산소유자&amp;nbsp;&lt;/b&gt;(&lt;u&gt;필지번호(PK)&lt;/u&gt;, 주민등록번호)&lt;/div&gt;&lt;b&gt;소유자&lt;/b&gt; (&lt;u&gt;주민등록번호(PK)&lt;/u&gt;, 소유자 이름, 전화번호)" style="text;html=1;align=left;verticalAlign=middle;resizable=0;points=[];autosize=1;strokeColor=none;fillColor=none;fontSize=17;" parent="1" vertex="1">
          <mxGeometry x="10" y="710" width="400" height="70" as="geometry" />
        </mxCell>
      </root>
    </mxGraphModel>
  </diagram>
  <diagram name="배송 릴레이션 정규화" id="4bBWBHwy-tLYqKVqXxgz">
    <mxGraphModel dx="776" dy="1997" grid="1" gridSize="10" guides="1" tooltips="1" connect="1" arrows="1" fold="1" page="1" pageScale="1" pageWidth="827" pageHeight="1169" math="0" shadow="0">
      <root>
        <mxCell id="0" />
        <mxCell id="1" parent="0" />
        <mxCell id="gtLMjYQGvlEGYtGbYwD2-6" value="" style="rounded=0;whiteSpace=wrap;html=1;fillColor=none;" parent="1" vertex="1">
          <mxGeometry x="150" y="410" width="160" height="180" as="geometry" />
        </mxCell>
        <mxCell id="jWS40SqH7NtqFrrCKvh--1" value="&lt;span style=&quot;color: rgb(13, 13, 13); font-family: Söhne, ui-sans-serif, system-ui, -apple-system, &amp;quot;Segoe UI&amp;quot;, Roboto, Ubuntu, Cantarell, &amp;quot;Noto Sans&amp;quot;, sans-serif, &amp;quot;Helvetica Neue&amp;quot;, Arial, &amp;quot;Apple Color Emoji&amp;quot;, &amp;quot;Segoe UI Emoji&amp;quot;, &amp;quot;Segoe UI Symbol&amp;quot;, &amp;quot;Noto Color Emoji&amp;quot;; font-size: 18px; font-style: normal; font-variant-ligatures: normal; font-variant-caps: normal; font-weight: 400; letter-spacing: normal; orphans: 2; text-align: start; text-indent: 0px; text-transform: none; widows: 2; word-spacing: 0px; -webkit-text-stroke-width: 0px; white-space: pre-wrap; background-color: rgb(255, 255, 255); text-decoration-thickness: initial; text-decoration-style: initial; text-decoration-color: initial; float: none; display: inline !important;&quot;&gt;다음은 배송(Shipping) 물품에 대한 릴레이션이다. 물음에 답하시오.&#xa;&#xa;릴레이션: &#xa;Shipping(shipname, shiptype, voyageID, cargo, port, date)&#xa;&#xa;함수 종속성: &#xa;shipname -&amp;gt; shiptype&#xa;voyageID -&amp;gt; shipname, cargo&#xa;{shipname, date} -&amp;gt; voyageID, port&#xa;&#xa;1. 함수 종속성 다이어그램을 그리시오.&#xa;2. 후보키를 찾으시오&#xa;3. 제2정규형으로 정규화하시오.&#xa;4. 제3정규형으로 정규화하시오&#xa;5. BCNF로 정규화하시오&lt;/span&gt;" style="text;whiteSpace=wrap;html=1;fontSize=18;" parent="1" vertex="1">
          <mxGeometry x="70" y="-40" width="580" height="350" as="geometry" />
        </mxCell>
        <mxCell id="gtLMjYQGvlEGYtGbYwD2-5" value="" style="rounded=0;orthogonalLoop=1;jettySize=auto;html=1;" parent="1" source="gtLMjYQGvlEGYtGbYwD2-1" target="gtLMjYQGvlEGYtGbYwD2-4" edge="1">
          <mxGeometry relative="1" as="geometry" />
        </mxCell>
        <mxCell id="gtLMjYQGvlEGYtGbYwD2-1" value="shipname" style="rounded=0;whiteSpace=wrap;html=1;fontSize=16;" parent="1" vertex="1">
          <mxGeometry x="170" y="430" width="120" height="60" as="geometry" />
        </mxCell>
        <mxCell id="gtLMjYQGvlEGYtGbYwD2-2" value="date" style="rounded=0;whiteSpace=wrap;html=1;fontSize=16;" parent="1" vertex="1">
          <mxGeometry x="170" y="510" width="120" height="60" as="geometry" />
        </mxCell>
        <mxCell id="gtLMjYQGvlEGYtGbYwD2-4" value="shiptype" style="rounded=0;whiteSpace=wrap;html=1;fontSize=16;" parent="1" vertex="1">
          <mxGeometry x="370" y="400" width="120" height="60" as="geometry" />
        </mxCell>
        <mxCell id="gtLMjYQGvlEGYtGbYwD2-8" value="" style="rounded=0;orthogonalLoop=1;jettySize=auto;html=1;" parent="1" source="gtLMjYQGvlEGYtGbYwD2-6" target="gtLMjYQGvlEGYtGbYwD2-7" edge="1">
          <mxGeometry relative="1" as="geometry" />
        </mxCell>
        <mxCell id="gtLMjYQGvlEGYtGbYwD2-13" value="" style="rounded=0;orthogonalLoop=1;jettySize=auto;html=1;" parent="1" source="gtLMjYQGvlEGYtGbYwD2-6" target="gtLMjYQGvlEGYtGbYwD2-11" edge="1">
          <mxGeometry relative="1" as="geometry" />
        </mxCell>
        <mxCell id="gtLMjYQGvlEGYtGbYwD2-10" value="" style="rounded=0;orthogonalLoop=1;jettySize=auto;html=1;" parent="1" source="gtLMjYQGvlEGYtGbYwD2-7" target="gtLMjYQGvlEGYtGbYwD2-9" edge="1">
          <mxGeometry relative="1" as="geometry" />
        </mxCell>
        <mxCell id="gtLMjYQGvlEGYtGbYwD2-15" value="" style="rounded=0;orthogonalLoop=1;jettySize=auto;html=1;" parent="1" source="gtLMjYQGvlEGYtGbYwD2-7" target="gtLMjYQGvlEGYtGbYwD2-1" edge="1">
          <mxGeometry relative="1" as="geometry">
            <mxPoint x="460" y="490" as="targetPoint" />
          </mxGeometry>
        </mxCell>
        <mxCell id="gtLMjYQGvlEGYtGbYwD2-7" value="voyageID" style="rounded=0;whiteSpace=wrap;html=1;fontSize=16;" parent="1" vertex="1">
          <mxGeometry x="384" y="500" width="120" height="60" as="geometry" />
        </mxCell>
        <mxCell id="gtLMjYQGvlEGYtGbYwD2-9" value="cargo" style="rounded=0;whiteSpace=wrap;html=1;fontSize=16;" parent="1" vertex="1">
          <mxGeometry x="580" y="500" width="120" height="60" as="geometry" />
        </mxCell>
        <mxCell id="gtLMjYQGvlEGYtGbYwD2-11" value="port" style="rounded=0;whiteSpace=wrap;html=1;fontSize=16;" parent="1" vertex="1">
          <mxGeometry x="384" y="590" width="120" height="60" as="geometry" />
        </mxCell>
        <mxCell id="KQdlaq4FczQMzV1axYGo-2" value="&lt;b style=&quot;font-size: 16px;&quot;&gt;1. 함수종속성 다이어그램&lt;/b&gt;" style="text;html=1;align=center;verticalAlign=middle;resizable=0;points=[];autosize=1;strokeColor=none;fillColor=none;fontSize=16;" parent="1" vertex="1">
          <mxGeometry x="70" y="328" width="210" height="30" as="geometry" />
        </mxCell>
        <mxCell id="KQdlaq4FczQMzV1axYGo-3" value="&lt;b style=&quot;font-size: 16px;&quot;&gt;3. 2정규형 (부분 함수 종속성 제거)&lt;/b&gt;" style="text;html=1;align=left;verticalAlign=middle;resizable=0;points=[];autosize=1;strokeColor=none;fillColor=none;fontSize=16;" parent="1" vertex="1">
          <mxGeometry x="85" y="760" width="270" height="30" as="geometry" />
        </mxCell>
        <mxCell id="KQdlaq4FczQMzV1axYGo-17" value="&lt;b style=&quot;font-size: 16px;&quot;&gt;4. 3정규형 (이행 함수 종속성 제거)&lt;/b&gt;" style="text;html=1;align=left;verticalAlign=middle;resizable=0;points=[];autosize=1;strokeColor=none;fillColor=none;fontSize=16;" parent="1" vertex="1">
          <mxGeometry x="40" y="1160" width="270" height="30" as="geometry" />
        </mxCell>
        <mxCell id="KQdlaq4FczQMzV1axYGo-20" value="&lt;b style=&quot;font-size: 16px;&quot;&gt;5. BCNF정규형 (결정자에 의한 종속성 제거)&lt;/b&gt;" style="text;html=1;align=left;verticalAlign=middle;resizable=0;points=[];autosize=1;strokeColor=none;fillColor=none;fontSize=16;" parent="1" vertex="1">
          <mxGeometry x="35" y="1610" width="340" height="30" as="geometry" />
        </mxCell>
        <mxCell id="KQdlaq4FczQMzV1axYGo-39" value="Ship&lt;span style=&quot;font-weight: normal;&quot;&gt;(&lt;u&gt;shipname&lt;/u&gt;, shiptype)&lt;/span&gt;" style="text;html=1;align=center;verticalAlign=middle;resizable=0;points=[];autosize=1;strokeColor=none;fillColor=none;fontSize=16;fontStyle=1" parent="1" vertex="1">
          <mxGeometry x="80" y="1650" width="200" height="30" as="geometry" />
        </mxCell>
        <mxCell id="KQdlaq4FczQMzV1axYGo-40" value="VoyageDetail&lt;span style=&quot;font-weight: normal;&quot;&gt;(&lt;u&gt;voyageID&lt;/u&gt;, &lt;u&gt;date&lt;/u&gt;, port)&lt;/span&gt;" style="text;html=1;align=center;verticalAlign=middle;resizable=0;points=[];autosize=1;strokeColor=none;fillColor=none;fontSize=16;fontStyle=1" parent="1" vertex="1">
          <mxGeometry x="95" y="1770" width="270" height="30" as="geometry" />
        </mxCell>
        <mxCell id="KQdlaq4FczQMzV1axYGo-41" value="Voyage&lt;span style=&quot;font-weight: normal;&quot;&gt;(&lt;u&gt;voyageID&lt;/u&gt;,&amp;nbsp;&lt;/span&gt;&lt;span style=&quot;font-weight: 400;&quot;&gt;shipname, cargo)&lt;/span&gt;" style="text;html=1;align=center;verticalAlign=middle;resizable=0;points=[];autosize=1;strokeColor=none;fillColor=none;fontSize=16;fontStyle=1" parent="1" vertex="1">
          <mxGeometry x="530" y="1865" width="280" height="30" as="geometry" />
        </mxCell>
        <mxCell id="KQdlaq4FczQMzV1axYGo-42" value="Cargo&lt;span style=&quot;font-weight: normal;&quot;&gt;(&lt;u&gt;voyageID&lt;/u&gt;, cargo)&lt;/span&gt;" style="text;html=1;align=center;verticalAlign=middle;resizable=0;points=[];autosize=1;strokeColor=none;fillColor=none;fontSize=16;fontStyle=1" parent="1" vertex="1">
          <mxGeometry x="498.5" y="1290" width="190" height="30" as="geometry" />
        </mxCell>
        <mxCell id="KQdlaq4FczQMzV1axYGo-43" value="Ship&lt;span style=&quot;font-weight: normal;&quot;&gt;(&lt;u&gt;shipname&lt;/u&gt;, shiptype)&lt;/span&gt;" style="text;html=1;align=center;verticalAlign=middle;resizable=0;points=[];autosize=1;strokeColor=none;fillColor=none;fontSize=16;fontStyle=1" parent="1" vertex="1">
          <mxGeometry x="105" y="1190" width="200" height="30" as="geometry" />
        </mxCell>
        <mxCell id="KQdlaq4FczQMzV1axYGo-44" value="Voyage&lt;span style=&quot;font-weight: normal;&quot;&gt;(&lt;u&gt;shipname&lt;/u&gt;, &lt;u&gt;date&lt;/u&gt;, voyageID, port)&lt;/span&gt;" style="text;html=1;align=center;verticalAlign=middle;resizable=0;points=[];autosize=1;strokeColor=none;fillColor=none;fontSize=16;fontStyle=1" parent="1" vertex="1">
          <mxGeometry x="100" y="1290" width="310" height="30" as="geometry" />
        </mxCell>
        <mxCell id="KQdlaq4FczQMzV1axYGo-45" value="Voyage&lt;span style=&quot;font-weight: normal;&quot;&gt;(&lt;u&gt;shipname&lt;/u&gt;, &lt;u&gt;date&lt;/u&gt;, voyageID, port, cargo)&lt;/span&gt;" style="text;html=1;align=center;verticalAlign=middle;resizable=0;points=[];autosize=1;strokeColor=none;fillColor=none;fontSize=16;fontStyle=1" parent="1" vertex="1">
          <mxGeometry x="135" y="890" width="360" height="30" as="geometry" />
        </mxCell>
        <mxCell id="KQdlaq4FczQMzV1axYGo-46" value="Ship&lt;span style=&quot;font-weight: normal;&quot;&gt;(&lt;u&gt;shipname&lt;/u&gt;, shiptype)&lt;/span&gt;" style="text;html=1;align=center;verticalAlign=middle;resizable=0;points=[];autosize=1;strokeColor=none;fillColor=none;fontSize=16;fontStyle=1" parent="1" vertex="1">
          <mxGeometry x="140" y="790" width="200" height="30" as="geometry" />
        </mxCell>
        <mxCell id="KQdlaq4FczQMzV1axYGo-47" value="Voyage&lt;span style=&quot;font-weight: normal;&quot;&gt;(&lt;u&gt;shipname&lt;/u&gt;, &lt;u&gt;date&lt;/u&gt;, shiptype, voyageID, port, cargo)&lt;/span&gt;" style="text;html=1;align=center;verticalAlign=middle;resizable=0;points=[];autosize=1;strokeColor=none;fillColor=none;fontSize=16;fontStyle=1" parent="1" vertex="1">
          <mxGeometry x="160" y="370" width="430" height="30" as="geometry" />
        </mxCell>
        <mxCell id="KQdlaq4FczQMzV1axYGo-48" value="&lt;b style=&quot;font-size: 16px;&quot;&gt;2. 후보키&lt;/b&gt;" style="text;html=1;align=left;verticalAlign=middle;resizable=0;points=[];autosize=1;strokeColor=none;fillColor=none;fontSize=16;" parent="1" vertex="1">
          <mxGeometry x="90.5" y="710" width="90" height="30" as="geometry" />
        </mxCell>
        <mxCell id="KQdlaq4FczQMzV1axYGo-55" value="" style="html=1;shadow=0;dashed=0;align=center;verticalAlign=middle;shape=mxgraph.arrows2.arrow;dy=0.6;dx=40;notch=0;rotation=90;" parent="1" vertex="1">
          <mxGeometry x="640" y="1815" width="55" height="40" as="geometry" />
        </mxCell>
        <mxCell id="-a4_SDbCGDsIFxmoEFt6-1" value="{shipname, date}" style="text;html=1;align=center;verticalAlign=middle;resizable=0;points=[];autosize=1;strokeColor=none;fillColor=none;fontSize=18;" parent="1" vertex="1">
          <mxGeometry x="190" y="700" width="160" height="40" as="geometry" />
        </mxCell>
        <mxCell id="-a4_SDbCGDsIFxmoEFt6-52" value="" style="edgeStyle=orthogonalEdgeStyle;rounded=0;orthogonalLoop=1;jettySize=auto;html=1;" parent="1" source="-a4_SDbCGDsIFxmoEFt6-54" target="-a4_SDbCGDsIFxmoEFt6-55" edge="1">
          <mxGeometry relative="1" as="geometry" />
        </mxCell>
        <mxCell id="-a4_SDbCGDsIFxmoEFt6-53" value="" style="rounded=0;orthogonalLoop=1;jettySize=auto;html=1;" parent="1" source="-a4_SDbCGDsIFxmoEFt6-54" target="-a4_SDbCGDsIFxmoEFt6-56" edge="1">
          <mxGeometry relative="1" as="geometry" />
        </mxCell>
        <mxCell id="-a4_SDbCGDsIFxmoEFt6-54" value="voyageID" style="rounded=0;whiteSpace=wrap;html=1;fontSize=16;" parent="1" vertex="1">
          <mxGeometry x="483.5" y="1915" width="120" height="60" as="geometry" />
        </mxCell>
        <mxCell id="-a4_SDbCGDsIFxmoEFt6-55" value="cargo" style="rounded=0;whiteSpace=wrap;html=1;fontSize=16;" parent="1" vertex="1">
          <mxGeometry x="653.5" y="1915" width="120" height="60" as="geometry" />
        </mxCell>
        <mxCell id="-a4_SDbCGDsIFxmoEFt6-56" value="shipname" style="rounded=0;whiteSpace=wrap;html=1;fontSize=16;" parent="1" vertex="1">
          <mxGeometry x="653.5" y="2005" width="120" height="60" as="geometry" />
        </mxCell>
        <mxCell id="-a4_SDbCGDsIFxmoEFt6-58" value="" style="rounded=0;whiteSpace=wrap;html=1;fillColor=none;" parent="1" vertex="1">
          <mxGeometry x="170" y="940" width="160" height="180" as="geometry" />
        </mxCell>
        <mxCell id="-a4_SDbCGDsIFxmoEFt6-60" value="shipname" style="rounded=0;whiteSpace=wrap;html=1;fontSize=16;" parent="1" vertex="1">
          <mxGeometry x="190" y="960" width="120" height="60" as="geometry" />
        </mxCell>
        <mxCell id="-a4_SDbCGDsIFxmoEFt6-61" value="date" style="rounded=0;whiteSpace=wrap;html=1;fontSize=16;" parent="1" vertex="1">
          <mxGeometry x="190" y="1040" width="120" height="60" as="geometry" />
        </mxCell>
        <mxCell id="-a4_SDbCGDsIFxmoEFt6-63" value="" style="rounded=0;orthogonalLoop=1;jettySize=auto;html=1;" parent="1" source="-a4_SDbCGDsIFxmoEFt6-58" target="-a4_SDbCGDsIFxmoEFt6-67" edge="1">
          <mxGeometry relative="1" as="geometry" />
        </mxCell>
        <mxCell id="-a4_SDbCGDsIFxmoEFt6-64" value="" style="rounded=0;orthogonalLoop=1;jettySize=auto;html=1;" parent="1" source="-a4_SDbCGDsIFxmoEFt6-58" target="-a4_SDbCGDsIFxmoEFt6-69" edge="1">
          <mxGeometry relative="1" as="geometry" />
        </mxCell>
        <mxCell id="-a4_SDbCGDsIFxmoEFt6-65" value="" style="rounded=0;orthogonalLoop=1;jettySize=auto;html=1;" parent="1" source="-a4_SDbCGDsIFxmoEFt6-67" target="-a4_SDbCGDsIFxmoEFt6-68" edge="1">
          <mxGeometry relative="1" as="geometry" />
        </mxCell>
        <mxCell id="-a4_SDbCGDsIFxmoEFt6-66" value="" style="rounded=0;orthogonalLoop=1;jettySize=auto;html=1;" parent="1" source="-a4_SDbCGDsIFxmoEFt6-67" target="-a4_SDbCGDsIFxmoEFt6-60" edge="1">
          <mxGeometry relative="1" as="geometry">
            <mxPoint x="480" y="1020" as="targetPoint" />
          </mxGeometry>
        </mxCell>
        <mxCell id="-a4_SDbCGDsIFxmoEFt6-67" value="voyageID" style="rounded=0;whiteSpace=wrap;html=1;fontSize=16;" parent="1" vertex="1">
          <mxGeometry x="410" y="970" width="120" height="60" as="geometry" />
        </mxCell>
        <mxCell id="-a4_SDbCGDsIFxmoEFt6-68" value="cargo" style="rounded=0;whiteSpace=wrap;html=1;fontSize=16;" parent="1" vertex="1">
          <mxGeometry x="606" y="970" width="120" height="60" as="geometry" />
        </mxCell>
        <mxCell id="-a4_SDbCGDsIFxmoEFt6-69" value="port" style="rounded=0;whiteSpace=wrap;html=1;fontSize=16;" parent="1" vertex="1">
          <mxGeometry x="410" y="1060" width="120" height="60" as="geometry" />
        </mxCell>
        <mxCell id="-a4_SDbCGDsIFxmoEFt6-70" value="" style="rounded=0;orthogonalLoop=1;jettySize=auto;html=1;" parent="1" source="-a4_SDbCGDsIFxmoEFt6-71" target="-a4_SDbCGDsIFxmoEFt6-72" edge="1">
          <mxGeometry relative="1" as="geometry" />
        </mxCell>
        <mxCell id="-a4_SDbCGDsIFxmoEFt6-71" value="shipname" style="rounded=0;whiteSpace=wrap;html=1;fontSize=16;" parent="1" vertex="1">
          <mxGeometry x="165" y="830" width="120" height="60" as="geometry" />
        </mxCell>
        <mxCell id="-a4_SDbCGDsIFxmoEFt6-72" value="shiptype" style="rounded=0;whiteSpace=wrap;html=1;fontSize=16;" parent="1" vertex="1">
          <mxGeometry x="390" y="830" width="120" height="60" as="geometry" />
        </mxCell>
        <mxCell id="-a4_SDbCGDsIFxmoEFt6-73" value="shipname" style="rounded=0;whiteSpace=wrap;html=1;fontSize=16;" parent="1" vertex="1">
          <mxGeometry x="138.5" y="1220" width="120" height="60" as="geometry" />
        </mxCell>
        <mxCell id="-a4_SDbCGDsIFxmoEFt6-74" value="" style="rounded=0;orthogonalLoop=1;jettySize=auto;html=1;" parent="1" source="-a4_SDbCGDsIFxmoEFt6-73" target="-a4_SDbCGDsIFxmoEFt6-75" edge="1">
          <mxGeometry relative="1" as="geometry" />
        </mxCell>
        <mxCell id="-a4_SDbCGDsIFxmoEFt6-75" value="shiptype" style="rounded=0;whiteSpace=wrap;html=1;fontSize=16;" parent="1" vertex="1">
          <mxGeometry x="363.5" y="1220" width="120" height="60" as="geometry" />
        </mxCell>
        <mxCell id="-a4_SDbCGDsIFxmoEFt6-76" value="" style="rounded=0;whiteSpace=wrap;html=1;fillColor=none;" parent="1" vertex="1">
          <mxGeometry x="100" y="1340" width="160" height="180" as="geometry" />
        </mxCell>
        <mxCell id="-a4_SDbCGDsIFxmoEFt6-77" value="shipname" style="rounded=0;whiteSpace=wrap;html=1;fontSize=16;" parent="1" vertex="1">
          <mxGeometry x="120" y="1360" width="120" height="60" as="geometry" />
        </mxCell>
        <mxCell id="-a4_SDbCGDsIFxmoEFt6-78" value="date" style="rounded=0;whiteSpace=wrap;html=1;fontSize=16;" parent="1" vertex="1">
          <mxGeometry x="120" y="1440" width="120" height="60" as="geometry" />
        </mxCell>
        <mxCell id="-a4_SDbCGDsIFxmoEFt6-79" value="" style="rounded=0;orthogonalLoop=1;jettySize=auto;html=1;" parent="1" source="-a4_SDbCGDsIFxmoEFt6-76" target="-a4_SDbCGDsIFxmoEFt6-83" edge="1">
          <mxGeometry relative="1" as="geometry" />
        </mxCell>
        <mxCell id="-a4_SDbCGDsIFxmoEFt6-80" value="" style="rounded=0;orthogonalLoop=1;jettySize=auto;html=1;" parent="1" source="-a4_SDbCGDsIFxmoEFt6-76" target="-a4_SDbCGDsIFxmoEFt6-85" edge="1">
          <mxGeometry relative="1" as="geometry" />
        </mxCell>
        <mxCell id="-a4_SDbCGDsIFxmoEFt6-82" value="" style="rounded=0;orthogonalLoop=1;jettySize=auto;html=1;" parent="1" source="-a4_SDbCGDsIFxmoEFt6-83" target="-a4_SDbCGDsIFxmoEFt6-77" edge="1">
          <mxGeometry relative="1" as="geometry">
            <mxPoint x="410" y="1420" as="targetPoint" />
          </mxGeometry>
        </mxCell>
        <mxCell id="-a4_SDbCGDsIFxmoEFt6-83" value="voyageID" style="rounded=0;whiteSpace=wrap;html=1;fontSize=16;" parent="1" vertex="1">
          <mxGeometry x="340" y="1370" width="120" height="60" as="geometry" />
        </mxCell>
        <mxCell id="-a4_SDbCGDsIFxmoEFt6-85" value="port" style="rounded=0;whiteSpace=wrap;html=1;fontSize=16;" parent="1" vertex="1">
          <mxGeometry x="340" y="1460" width="120" height="60" as="geometry" />
        </mxCell>
        <mxCell id="-a4_SDbCGDsIFxmoEFt6-86" value="" style="rounded=0;orthogonalLoop=1;jettySize=auto;html=1;" parent="1" source="-a4_SDbCGDsIFxmoEFt6-87" target="-a4_SDbCGDsIFxmoEFt6-88" edge="1">
          <mxGeometry relative="1" as="geometry" />
        </mxCell>
        <mxCell id="-a4_SDbCGDsIFxmoEFt6-87" value="voyageID" style="rounded=0;whiteSpace=wrap;html=1;fontSize=16;" parent="1" vertex="1">
          <mxGeometry x="495" y="1340" width="120" height="60" as="geometry" />
        </mxCell>
        <mxCell id="-a4_SDbCGDsIFxmoEFt6-88" value="cargo" style="rounded=0;whiteSpace=wrap;html=1;fontSize=16;" parent="1" vertex="1">
          <mxGeometry x="691" y="1340" width="120" height="60" as="geometry" />
        </mxCell>
        <mxCell id="-a4_SDbCGDsIFxmoEFt6-89" value="shipname" style="rounded=0;whiteSpace=wrap;html=1;fontSize=16;" parent="1" vertex="1">
          <mxGeometry x="100" y="1694" width="120" height="60" as="geometry" />
        </mxCell>
        <mxCell id="-a4_SDbCGDsIFxmoEFt6-90" value="" style="rounded=0;orthogonalLoop=1;jettySize=auto;html=1;" parent="1" source="-a4_SDbCGDsIFxmoEFt6-89" target="-a4_SDbCGDsIFxmoEFt6-91" edge="1">
          <mxGeometry relative="1" as="geometry" />
        </mxCell>
        <mxCell id="-a4_SDbCGDsIFxmoEFt6-91" value="shiptype" style="rounded=0;whiteSpace=wrap;html=1;fontSize=16;" parent="1" vertex="1">
          <mxGeometry x="290" y="1694" width="120" height="60" as="geometry" />
        </mxCell>
        <mxCell id="-a4_SDbCGDsIFxmoEFt6-92" value="" style="rounded=0;orthogonalLoop=1;jettySize=auto;html=1;" parent="1" source="-a4_SDbCGDsIFxmoEFt6-93" target="-a4_SDbCGDsIFxmoEFt6-94" edge="1">
          <mxGeometry relative="1" as="geometry" />
        </mxCell>
        <mxCell id="-a4_SDbCGDsIFxmoEFt6-93" value="voyageID" style="rounded=0;whiteSpace=wrap;html=1;fontSize=16;" parent="1" vertex="1">
          <mxGeometry x="490" y="1650" width="120" height="60" as="geometry" />
        </mxCell>
        <mxCell id="-a4_SDbCGDsIFxmoEFt6-94" value="cargo" style="rounded=0;whiteSpace=wrap;html=1;fontSize=16;" parent="1" vertex="1">
          <mxGeometry x="686" y="1650" width="120" height="60" as="geometry" />
        </mxCell>
        <mxCell id="-a4_SDbCGDsIFxmoEFt6-95" value="" style="rounded=0;whiteSpace=wrap;html=1;fillColor=none;" parent="1" vertex="1">
          <mxGeometry x="98.5" y="1830" width="160" height="180" as="geometry" />
        </mxCell>
        <mxCell id="-a4_SDbCGDsIFxmoEFt6-97" value="date" style="rounded=0;whiteSpace=wrap;html=1;fontSize=16;" parent="1" vertex="1">
          <mxGeometry x="118.5" y="1930" width="120" height="60" as="geometry" />
        </mxCell>
        <mxCell id="-a4_SDbCGDsIFxmoEFt6-99" value="" style="rounded=0;orthogonalLoop=1;jettySize=auto;html=1;" parent="1" source="-a4_SDbCGDsIFxmoEFt6-95" target="-a4_SDbCGDsIFxmoEFt6-102" edge="1">
          <mxGeometry relative="1" as="geometry" />
        </mxCell>
        <mxCell id="-a4_SDbCGDsIFxmoEFt6-101" value="voyageID" style="rounded=0;whiteSpace=wrap;html=1;fontSize=16;" parent="1" vertex="1">
          <mxGeometry x="118.5" y="1855" width="120" height="60" as="geometry" />
        </mxCell>
        <mxCell id="-a4_SDbCGDsIFxmoEFt6-102" value="port" style="rounded=0;whiteSpace=wrap;html=1;fontSize=16;" parent="1" vertex="1">
          <mxGeometry x="300" y="1890" width="120" height="60" as="geometry" />
        </mxCell>
        <mxCell id="-a4_SDbCGDsIFxmoEFt6-103" value="shipname" style="rounded=0;whiteSpace=wrap;html=1;fontSize=16;" parent="1" vertex="1">
          <mxGeometry x="707" y="1740" width="120" height="60" as="geometry" />
        </mxCell>
        <mxCell id="-a4_SDbCGDsIFxmoEFt6-104" value="voyageID" style="rounded=0;whiteSpace=wrap;html=1;fontSize=16;" parent="1" vertex="1">
          <mxGeometry x="477" y="1740" width="120" height="60" as="geometry" />
        </mxCell>
        <mxCell id="-a4_SDbCGDsIFxmoEFt6-105" value="" style="rounded=0;orthogonalLoop=1;jettySize=auto;html=1;" parent="1" edge="1">
          <mxGeometry relative="1" as="geometry">
            <mxPoint x="707" y="1770" as="targetPoint" />
            <mxPoint x="597" y="1770" as="sourcePoint" />
          </mxGeometry>
        </mxCell>
      </root>
    </mxGraphModel>
  </diagram>
</mxfile>
